<?xml version="1.0" encoding="UTF-8"?>
<svg version="1.1" viewBox="0 0 251 222" xmlns="http://www.w3.org/2000/svg">
<title>Favorite items</title>
<desc>Created with Sketch.</desc>
<g fill="none" fill-rule="evenodd">
<g fill-rule="nonzero">
<path d="m138.89 122.08l-4.14-9.44s7.06-4.92 13.88 0l-3 9.44" fill="#AD1F2D"/>
<polygon points="185.49 144.24 164.69 153.25 174.73 163.97" fill="#AD1F2D"/>
<path d="m139.78 32.99c0.57943-2.3278 1.5976-4.5237 3-6.47 6.55-9 17.94-6.55 28.77-15.39 3.0663-2.5281 5.6657-5.5742 7.68-9l43.86-0.23v30.9l-26.43-0.18-0.5-4.8c-0.37345-2.1078-2.253-3.6111-4.3913-3.5123-2.1383 0.098808-3.8712 1.769-4.0487 3.9023l-0.41 4.27-47.53 0.51z" fill="#F9AA8E"/>
<ellipse cx="55.31" cy="8.02" rx="7.01" ry="6.9" fill="#E6E7E8"/>
<ellipse cx="68.1" cy="5.9" rx="6" ry="5.9" fill="#E6E7E8"/>
<ellipse cx="80.46" cy="6.53" rx="6.36" ry="6.26" fill="#E6E7E8"/>
<ellipse cx="91.74" cy="12.8" rx="6.54" ry="6.43" fill="#F9AA8E"/>
<ellipse cx="100.43" cy="20.72" rx="5.36" ry="5.28" fill="#AD1F2D"/>
<ellipse cx="107.5" cy="30.04" rx="6.59" ry="6.49" fill="#E6E7E8"/>
<ellipse cx="115.5" cy="39.33" rx="5.86" ry="5.77" fill="#F9AA8E"/>
<ellipse cx="126.46" cy="44.74" rx="6.44" ry="6.33" fill="#E6E7E8"/>
<ellipse cx="134.81" cy="52.99" rx="5.41" ry="5.32" fill="#E6E7E8"/>
<ellipse cx="135.11" cy="63.92" rx="5.7" ry="5.61" fill="#E6E7E8"/>
<ellipse cx="134.81" cy="74.56" rx="5.11" ry="5.03" fill="#F9AA8E"/>
<ellipse cx="131.33" cy="84.57" rx="5.61" ry="5.52" fill="#E6E7E8"/>
<ellipse cx="124.95" cy="95.35" rx="7.19" ry="7.08" fill="#E6E7E8"/>
<ellipse cx="117.76" cy="108.18" rx="7.74" ry="7.62" fill="#AD1F2D"/>
<ellipse cx="104.31" cy="114.08" rx="7.24" ry="7.13" fill="#E6E7E8"/>
<ellipse cx="92.3" cy="108.18" rx="6.3" ry="6.2" fill="#E6E7E8"/>
<ellipse cx="90.57" cy="95.69" rx="6.85" ry="6.74" fill="#F9AA8E"/>
<ellipse cx="84.3" cy="84.59" rx="6" ry="5.9" fill="#E6E7E8"/>
<ellipse cx="74.67" cy="77.27" rx="6.3" ry="6.2" fill="#E6E7E8"/>
<ellipse cx="59.77" cy="54.27" rx="4.81" ry="4.74" fill="#E6E7E8"/>
<ellipse cx="65.48" cy="61.86" rx="4.81" ry="4.74" fill="#F9AA8E"/>
<ellipse cx="65.48" cy="71.33" rx="4.81" ry="4.74" fill="#AD1F2D"/>
<ellipse cx="60.74" cy="43.46" rx="6.3" ry="6.2" fill="#E6E7E8"/>
<ellipse cx="60.2" cy="31.17" rx="6.3" ry="6.2" fill="#E6E7E8"/>
<ellipse cx="53.63" cy="20.81" rx="6.14" ry="6.04" fill="#F9AA8E"/>
<path d="m231.01 70.2c-2.41-15.4-23.42-15.4-23.42-15.4v-10.48h-33v11c-28.06-0.27-24.57 23-16.59 42.65h68c3.58-9.77 6.19-20.19 5.01-27.77z" fill="#E6E7E8"/>
<path d="m158.04 97.94c3.9018 9.3669 8.6095 18.377 14.07 26.93h41.73c4.7035-8.6771 8.7871-17.676 12.22-26.93h-68.02z" fill="#F9AA8E"/>
<path d="m142.22 121.65c-9.0706 0.1266-16.333 7.5601-16.249 16.631 0.084111 9.0711 7.4835 16.369 16.555 16.327 9.0714-0.041614 16.404-7.4067 16.404-16.478-0.02907-4.4017-1.8063-8.6114-4.9403-11.702-3.134-3.0909-7.368-4.8096-11.77-4.7777zm0 23.84c-4.0555-0.060536-7.2998-3.3865-7.2596-7.4422 0.040208-4.0557 3.3499-7.3167 7.4058-7.2969 4.0559 0.019879 7.3334 3.3132 7.3339 7.3691-0.033013 4.0996-3.3804 7.3977-7.48 7.37z" fill="#E6E7E8"/>
<path d="m185.49 144.24l-79.72 72.65m6.17-18.01l19.11-5.01-6.59 18.37" fill="#E6E7E8" stroke="#AD1F2D" stroke-linecap="round" stroke-linejoin="round" stroke-width="2"/>
<path d="m102.45 207.53l19.1-5-6.58 18.37m-86.94-140.67v10.66m8.45-10.66v10.66m8.45-10.66v10.66m8.46-10.66v10.66m25.08 86.46v10.66m8.45-10.66v10.66m8.45-10.66v10.66m8.45-10.66v10.66" fill="#E6E7E8" stroke="#AD1F2D" stroke-linecap="round" stroke-linejoin="round" stroke-width="2"/>
<path d="m75.93 111.75c-7.564-4.0325-11.918-12.257-11-20.78h-44.35c-0.67825 7.7786 2.696 15.358 8.93 20.06 0.76289 0.50131 1.4943 1.049 2.19 1.64h45.44c-0.43-0.34-0.84-0.66-1.21-0.92zm33.35 59.45c-1.4032-2.3155-2.2393-4.9299-2.44-7.63h-45.56c0.74444 5.9399 4.4489 11.098 9.84 13.7h44.45c-2.5828-1.4501-4.7489-3.5405-6.29-6.07z" fill="#F9AA8E"/>
<path d="m106.83 163.4c-0.064794-7.7165-4.2638-14.805-11-18.57-5.5373-3.4569-9.1349-9.3085-9.72-15.81-0.72115-6.4253-3.957-12.304-9-16.35h-45.41c1.2994 1.0987 2.4642 2.3474 3.47 3.72 2.2286 3.0767 3.6269 6.6757 4.06 10.45 0.52561 7.132 4.4031 13.592 10.45 17.41 6.475 3.5392 10.769 10.063 11.46 17.41 0.016763 0.6322 0.066833 1.2631 0.15 1.89h45.56s-0.01-0.1-0.02-0.15zm-80.74-109.36c0-6.28-8.61-6.28-8.61-12.57s8.61-6.28 8.61-12.56-8.61-6.27-8.61-12.55c0-5.78 7.29-6.25 8.44-11.19-15 4-25.92 16.49-25.92 31.27 0 12 7.14 22.42 17.84 28.1 1.65-4.34 8.25-4.99 8.25-10.5z" fill="#E6E7E8"/>
<path d="m36.37 3.81c-3.5291 0.0046906-7.0424 0.47201-10.45 1.39-1.15 4.94-8.44 5.41-8.44 11.19 0 6.28 8.61 6.28 8.61 12.55s-8.61 6.28-8.61 12.56 8.61 6.29 8.61 12.57c0 5.5-6.6 6.19-8.24 10.49 5.7123 2.9922 12.072 4.5374 18.52 4.5v-65.25z" fill="#F9AA8E"/>
</g>
</g>
</svg>
