<svg id="Illustrations" xmlns="http://www.w3.org/2000/svg" viewBox="0 0 96 96"><defs><style>.cls-1{fill:#ddd;}.cls-2{fill:#aaa;}</style></defs><title>2147_LISTING-QUALITY_r2v4c_MECH_OL.png</title><path class="cls-1" d="M-245.08-95.39a1,1,0,0,0-1.31-.53l-8.94,3.83-2.36-1A3,3,0,0,0-257-95a3,3,0,0,0-3-3,3,3,0,0,0-3,3,3,3,0,0,0,2.73,3l2.4,1-2.4,1A3,3,0,0,0-263-87a3,3,0,0,0,3,3,3,3,0,0,0,3-3,3,3,0,0,0-.7-1.9l2.36-1,8.94,3.83A1,1,0,0,0-246-86a1,1,0,0,0,.92-.61,1,1,0,0,0-.53-1.31L-252.8-91l7.19-3.08A1,1,0,0,0-245.08-95.39ZM-260-94a1,1,0,0,1-1-1,1,1,0,0,1,1-1,1,1,0,0,1,1,1A1,1,0,0,1-260-94Zm0,8a1,1,0,0,1-1-1,1,1,0,0,1,1-1,1,1,0,0,1,1,1A1,1,0,0,1-260-86Zm476-26H204v-8.49A11.52,11.52,0,0,0,192.5-132,11.52,11.52,0,0,0,181-120.49V-112H169a1,1,0,0,0-1,1v42a1,1,0,0,0,1,1h47a1,1,0,0,0,1-1v-42A1,1,0,0,0,216-112Zm-33-8.49a9.51,9.51,0,0,1,9.5-9.51,9.51,9.51,0,0,1,9.5,9.51V-112H183ZM215-70H170v-40h45ZM178.42-89.08,182-86.53l-1.42,4.32a1,1,0,0,0,.15.91,1,1,0,0,0,.83.4l4.28-.15,1.26,4.33a1,1,0,0,0,.66.68,1,1,0,0,0,.3,0,1,1,0,0,0,.63-.23L192.08-79l3.41,2.7a1,1,0,0,0,.93.17,1,1,0,0,0,.65-.68l1.2-4.35,4.28.08a1,1,0,0,0,.83-.41,1,1,0,0,0,.14-.91L202-86.69l3.55-2.61a1,1,0,0,0,.41-.81,1,1,0,0,0-.42-.81L202-93.47l1.42-4.32a1,1,0,0,0-.15-.91,1,1,0,0,0-.83-.4l-4.28.15-1.26-4.33a1,1,0,0,0-.66-.68,1,1,0,0,0-.93.18L191.92-101l-3.41-2.7a1,1,0,0,0-.93-.17,1,1,0,0,0-.65.68l-1.2,4.35-4.28-.08a.92.92,0,0,0-.83.41,1,1,0,0,0-.14.91L182-93.31l-3.55,2.61a1,1,0,0,0-.41.81A1,1,0,0,0,178.42-89.08Zm5.32-3.05a1,1,0,0,0,.35-1.13l-1.26-3.64,3.63.07a1,1,0,0,0,1-.73l1-3.64L191.31-99a1,1,0,0,0,1.25,0l2.82-2.3,1.06,3.63a1,1,0,0,0,1,.72l3.63-.13-1.2,3.66a1,1,0,0,0,.37,1.13l3.06,2.17-3,2.22a1,1,0,0,0-.35,1.13l1.26,3.64-3.63-.07a1.06,1.06,0,0,0-1,.73l-1,3.64L192.69-81a1,1,0,0,0-1.25,0l-2.82,2.3-1.06-3.63a1,1,0,0,0-1-.72h0l-3.62.13,1.2-3.66a1,1,0,0,0-.37-1.13l-3.06-2.17ZM192.17-85c2.85,0,5-1.35,5-3.14a1,1,0,0,0-.11-.45l-4-7.86a1,1,0,0,0-1.78,0l-4,7.86a1,1,0,0,0-.11.45C187.17-86.35,189.32-85,192.17-85Zm0-8.8,3,5.8a3.71,3.71,0,0,1-3,1,3.71,3.71,0,0,1-3-1ZM-56-79h-78a1,1,0,0,0-1,1v15a1,1,0,0,0,1,1h78a1,1,0,0,0,1-1V-78A1,1,0,0,0-56-79Zm-1,15h-76V-77h4v6a1,1,0,0,0,1,1,1,1,0,0,0,1-1v-6h4v9a1,1,0,0,0,1,1,1,1,0,0,0,1-1v-9h4v6a1,1,0,0,0,1,1,1,1,0,0,0,1-1v-6h4v9a1,1,0,0,0,1,1,1,1,0,0,0,1-1v-9h4v6a1,1,0,0,0,1,1,1,1,0,0,0,1-1v-6h4v9a1,1,0,0,0,1,1,1,1,0,0,0,1-1v-9h4v6a1,1,0,0,0,1,1,1,1,0,0,0,1-1v-6h4v9a1,1,0,0,0,1,1,1,1,0,0,0,1-1v-9h4v6a1,1,0,0,0,1,1,1,1,0,0,0,1-1v-6h4v9a1,1,0,0,0,1,1,1,1,0,0,0,1-1v-9h4v6a1,1,0,0,0,1,1,1,1,0,0,0,1-1v-6h4v9a1,1,0,0,0,1,1,1,1,0,0,0,1-1v-9h4ZM80-71v-62a1,1,0,0,0-1-1H17a1,1,0,0,0-1,1v62a1,1,0,0,0,1,1h6.4l1.05-2H18v-28H47v28H43.55l1.05,2H52v5a1,1,0,0,0,1,1H72a1,1,0,0,0,1-1v-5h6A1,1,0,0,0,80-71ZM18-132H41.93A26.3,26.3,0,0,1,18-108.07Zm29,30H18v-4.07A28.28,28.28,0,0,0,43.93-132H47ZM71-66H54V-80H71Zm7-6H73v-9a1,1,0,0,0-1-1H64v-3.35l5.65-4.89a1,1,0,0,0,.1-1.41,1,1,0,0,0-1.41-.1L64-88v-7a1,1,0,0,0-1-1,1,1,0,0,0-1,1v7l-4.35-3.73a1,1,0,0,0-1.41.11,1,1,0,0,0,.11,1.41L62-85.4V-82H53a1,1,0,0,0-1,1v9H49v-28H78Zm0-30H49v-30h3.07A28.28,28.28,0,0,0,78-106.07Zm0-6.07A26.3,26.3,0,0,1,54.07-132H78ZM193-241v15a1,1,0,0,0,1,1h15a1,1,0,0,0,1-1v-15a1,1,0,0,0-1-1H194A1,1,0,0,0,193-241Zm2,1h13v13H195Zm0-5a9,9,0,0,0,9-9,9,9,0,0,0-9-9,9,9,0,0,0-9,9A9,9,0,0,0,195-245Zm0-16a7,7,0,0,1,7,7,7,7,0,0,1-7,7,7,7,0,0,1-7-7A7,7,0,0,1,195-261Zm-3,49a30,30,0,0,0,30-30,30.05,30.05,0,0,0-21-28.62v-1.25a13,13,0,0,0,7.5,2.39,13,13,0,0,0,9.21-3.81,1,1,0,0,0,0-1.41,1,1,0,0,0-1.41,0,11,11,0,0,1-15.58,0,1,1,0,0,0-.33-.22A1,1,0,0,0,200-275h-.12l5.89-7.16a1,1,0,0,0,.22-.76,1,1,0,0,0-.4-.68l-3-2.2a1,1,0,0,0-1-.12L197-284.08l-4.63-1.85a1,1,0,0,0-.74,0L187-284.1l-3.6-1.8a1,1,0,0,0-.89,0l-4,2a1,1,0,0,0-.53.68,1,1,0,0,0,.2.84l6,7.37H184a1,1,0,0,0-1,1v3.38A30.05,30.05,0,0,0,162-242,30,30,0,0,0,192-212Zm-11.44-70.66,2.44-1.22,3.55,1.78a1,1,0,0,0,.82,0l4.63-1.85,4.63,1.85a1,1,0,0,0,.74,0l4.48-1.79,1.7,1.25L197.29-275h-10.5ZM199-273v2H185v-2Zm-14.4,4h14.8A28,28,0,0,1,220-242a28,28,0,0,1-28,28,28,28,0,0,1-28-28A28,28,0,0,1,184.6-269ZM300,22V73a1,1,0,0,0,1,1h68a1,1,0,0,0,1-1V22a1,1,0,0,0-1-1H301A1,1,0,0,0,300,22Zm2,1h66V72H302ZM373.69-81.73l-18-17a1,1,0,0,0-1.39,0l-1.79,1.79-4.69-4.69A19.9,19.9,0,0,0,353-115a20,20,0,0,0-20-20,20,20,0,0,0-20,20,20,20,0,0,0,20,20,19.9,19.9,0,0,0,13.4-5.19l4.69,4.69-1.79,1.79A1,1,0,0,0,349-93a1,1,0,0,0,.31.71l18,17A1,1,0,0,0,368-75a1,1,0,0,0,.71-.29l5-5A1,1,0,0,0,374-81,1,1,0,0,0,373.69-81.73ZM333-97a18,18,0,0,1-18-18,18,18,0,0,1,18-18,18,18,0,0,1,18,18A18,18,0,0,1,333-97Zm35,19.61L351.43-93,355-96.61,371.57-81ZM327.59-225.94a4.42,4.42,0,0,0,3.1-1.34,1,1,0,0,0,0-1.41,1,1,0,0,0-1.41,0,2.53,2.53,0,0,1-3.63,0,1,1,0,0,0-1.41,0,1,1,0,0,0,0,1.41A5,5,0,0,0,327.59-225.94Zm11.69,4.25A6.23,6.23,0,0,1,335-220a6.23,6.23,0,0,1-4.28-1.69,1,1,0,0,0-1.41,0,1,1,0,0,0,0,1.41A8.12,8.12,0,0,0,335-218a8.22,8.22,0,0,0,5.72-2.31,1,1,0,0,0,0-1.41A1,1,0,0,0,340-222,1,1,0,0,0,339.28-221.69Zm3.31-4.25a4.42,4.42,0,0,0,3.1-1.34,1,1,0,0,0,0-1.41,1,1,0,0,0-1.41,0,2.53,2.53,0,0,1-3.63,0,1,1,0,0,0-1.41,0,1,1,0,0,0,0,1.41A5,5,0,0,0,342.59-225.94ZM323.92-210.6a24.22,24.22,0,0,0-9.74,8,1,1,0,0,0,.24,1.39,1,1,0,0,0,.58.16v0h8v-2h-5.94a22.65,22.65,0,0,1,9.43-6.5A24.88,24.88,0,0,0,335-208a24.88,24.88,0,0,0,8.52-1.5,22.65,22.65,0,0,1,9.43,6.5H347v2h8a1,1,0,0,0,.58-.18,1,1,0,0,0,.24-1.39,24.22,24.22,0,0,0-9.74-8A25,25,0,0,0,360-233a24.88,24.88,0,0,0-6.07-16.3,6.07,6.07,0,0,1-.75,2.24A22.88,22.88,0,0,1,358-233a23,23,0,0,1-14.53,21.38,22.77,22.77,0,0,1-3.62,1.11A23,23,0,0,1,335-210a23,23,0,0,1-4.85-.52,22.77,22.77,0,0,1-3.62-1.11A23,23,0,0,1,312-233a22.88,22.88,0,0,1,4.81-14.05,6.07,6.07,0,0,1-.75-2.24A24.88,24.88,0,0,0,310-233,25,25,0,0,0,323.92-210.6Zm-522,132.23,0-.07a1,1,0,0,0-.07-.13l-16-23A1,1,0,0,0-215-102h-4.32l1.09,2h2.7l14.61,21h-76.24l13.7-21h27.68l1.09-2H-264a1,1,0,0,0-.84.45l-15,23a1,1,0,0,0-.05.11l0,.08A1,1,0,0,0-280-78v25h2V-77h6v22h-3v2h8v-2h-3V-69h62v14h-3v2h8v-2h-3V-77h6v24h2V-78A1,1,0,0,0-198.07-78.36ZM-208-71h-62v-6h62ZM381,84h2V76h-2Zm-92-8h-2v8h2Zm0-48h-2v8h2Zm0,16h-2v8h2Zm0,16h-2v8h2Zm92,8h2V60h-2ZM331,96h8V94h-8Zm50-60h2V28h-2ZM299,96h8V94h-8Zm16,0h8V94h-8ZM289,12h-2v8h2Zm-2-8h2V2h2V0h-4Zm94,16h2V12h-2ZM379,2h2V4h2V0h-4ZM289,92h-2v4h4V94h-2Zm92-40h2V44h-2ZM307,0h-8V2h8Zm8,2h8V0h-8Zm24,0V0h-8V2Zm42,92h-2v2h4V92h-2ZM347,2h8V0h-8Zm16,94h8V94h-8Zm-16,0h8V94h-8ZM363,2h8V0h-8ZM-285-253h-2v8h2Zm0,16h-2v8h2Zm50-60h-8v2h8Zm-50,28h-2v8h2Zm92,66h-2v2h4v-4h-2Zm-92-2h-2v4h4v-2h-2Zm34-92h-8v2h8Zm16,94h-8v2h8Zm-52-90h2v-2h2v-2h-4Zm36,90h-8v2h8Zm-34-18h-2v8h2Zm92-56h2v-8h-2Zm0,64h2v-8h-2Zm-10,10h-8v2h8Zm0-94h-8v2h8Zm-64,0h-8v2h8Zm0,94h-8v2h8Zm74-58h2v-8h-2Zm-92-24h-2v8h2Zm92,56h2v-8h-2Zm-2-66h2v2h2v-4h-4Zm2,50h2v-8h-2Zm-26,42h-8v2h8Zm0-94h-8v2h8ZM2-285H0v8H2Zm18,82H12v2h8Zm48,0H60v2h8ZM0-293H2v-2H4v-2H0Zm20-4H12v2h8ZM2-205H0v4H4v-2H2Zm34-92H28v2h8Zm0,94H28v2h8ZM2-269H0v8H2Zm66-28H60v2h8ZM52-203H44v2h8Zm24,2h8v-2H76Zm18-60h2v-8H94Zm0,16h2v-8H94Zm0,16h2v-8H94Zm0,16h2v-8H94Zm0-64h2v-8H94Zm-2-18h2v2h2v-4H92Zm-40-2H44v2h8Zm42,94H92v2h4v-4H94ZM76-295h8v-2H76ZM2-237H0v8H2Zm0-16H0v8H2Zm0,32H0v8H2Zm144,0h-2v8h2Zm92-56h2v-8h-2Zm-2-18h2v2h2v-4h-4Zm-40-2h-8v2h8Zm16,94h-8v2h8Zm8,2h8v-2h-8Zm18-60h2v-8h-2Zm-94-32h2v-2h2v-2h-4Zm94,80h2v-8h-2Zm-42,10h-8v2h8Zm42,0h-2v2h4v-4h-2Zm-92-2h-2v4h4v-2h-2Zm34-92h-8v2h8Zm58,68h2v-8h-2Zm0-16h2v-8h-2Zm-92,8h-2v8h2Zm0-16h-2v8h2Zm66-44h-8v2h8Zm-66,28h-2v8h2Zm0-16h-2v8h2Zm18-12h-8v2h8Zm16,94h-8v2h8Zm-24,2h8v-2h-8Zm64-94h8v-2h-8Zm87-2h-8v2h8Zm24,94v2h8v-2Zm50-58h2v-8h-2Zm0-16h2v-8h-2Zm-90,74h-2v-2h-2v4h4Zm-2-82h-2v8h2Zm0-10h2v-2h-4v4h2Zm0,26h-2v8h2Zm18,66h-8v2h8Zm-18-18h-2v8h2Zm0-32h-2v8h2Zm34-44h-8v2h8Zm-34,60h-2v8h2Zm92-8h2v-8h-2Zm0,16h2v-8h-2Zm0,16h2v-8h-2Zm-10,10h-8v2h8Zm10,0h-2v2h4v-4h-2Zm-10-94h-8v2h8Zm-32,0h-8v2h8Zm40,0v2h2v2h2v-4Zm-24,0h-8v2h8ZM-287-145h2v-2h2v-2h-4Zm2,24h-2v8h2Zm0,64h-2v4h4v-2h-2Zm92-40h2v-8h-2Zm-92-40h-2v8h2Zm0,64h-2v8h2Zm0-16h-2v8h2Zm0-16h-2v8h2Zm92-8h2v-8h-2Zm-34,60h8v-2h-8Zm-8-96h-8v2h8Zm-16,0h-8v2h8Zm32,0h-8v2h8Zm26,94h-2v2h4v-4h-2Zm0-26h2v-8h-2Zm0,16h2v-8h-2Zm-50,12h8v-2h-8Zm-24-96h-8v2h8Zm8,96h8v-2h-8Zm66-76h2v-8h-2Zm-10-20h-8v2h8Zm8,2h2v2h2v-4h-4ZM-67-52h8v-2h-8Zm8-96h-8v2h8ZM-75-54h-8v2h8Zm0-94h-8v2h8Zm-16,0h-8v2h8Zm42,94h-2v2h4v-4h-2Zm0-74h2v-8h-2Zm0,16h2v-8h-2Zm-2-34h2v2h2v-4h-4Zm2,50h2v-8h-2Zm0,16h2v-8h-2Zm0,16h2v-8h-2Zm-74-84h-8v2h8Zm-18,60h-2v8h2Zm0-32h-2v8h2Zm34-28h-8v2h8Zm-34,44h-2v8h2Zm0,48h-2v4h4v-2h-2Zm0-16h-2v8h2Zm-2-72h2v-2h2v-2h-4Zm12,92h8v-2h-8Zm24-2h-8v2h8Zm-34-82h-2v8h2Zm50,82h-8v2h8ZM52-148H44v2h8Zm-16,0H28v2h8Zm-16,0H12v2h8ZM2-120H0v8H2Zm66-28H60v2h8ZM2-136H0v8H2Zm0,32H0v8H2ZM2-88H0v8H2ZM2-72H0v8H2ZM76-52h8v-2H76ZM36-54H28v2h8ZM94-80h2v-8H94ZM68-54H60v2h8ZM94-64h2v-8H94ZM52-54H44v2h8ZM12-52h8v-2H12ZM0-144H2v-2H4v-2H0ZM2-56H0v4H4v-2H2Zm92,2H92v2h4v-4H94Zm-2-92h2v2h2v-4H92Zm2,18h2v-8H94ZM76-146h8v-2H76Zm18,34h2v-8H94Zm0,16h2v-8H94Zm52,8h-2v8h2Zm34,34h-8v2h8ZM146-72h-2v8h2Zm10,20h8v-2h-8Zm40-2h-8v2h8Zm-52-90h2v-2h2v-2h-4Zm12-2h8v-2h-8Zm32,0h8v-2h-8Zm50,82h2v-8h-2Zm0-16h2v-8h-2Zm0,26h-2v2h4v-4h-2Zm0-42h2v-8h-2Zm-2-50h2v2h2v-4h-4Zm2,34h2v-8h-2Zm-34-34h8v-2h-8Zm34,18h2v-8h-2Zm-92-8h-2v8h2Zm0,80h-2v4h4v-2h-2Zm74-90h8v-2h-8Zm-48,0h8v-2h-8Zm48,94h8v-2h-8Zm-74-52h-2v8h2Zm66,50h-8v2h8Zm-66-66h-2v8h2ZM-67,2h8V0h-8Zm0,94h8V94h-8Zm18-76h2V12h-2Zm0,16h2V28h-2Zm0,16h2V44h-2ZM-51,2h2V4h2V0h-4Zm2,82h2V76h-2Zm0-16h2V60h-2Zm0,26h-2v2h4V92h-2ZM-143,4h2V2h2V0h-4Zm28,92h8V94h-8Zm-26-84h-2v8h2Zm0,16h-2v8h2Zm42,68h8V94h-8Zm-42-36h-2v8h2Zm0,16h-2v8h2Zm0-32h-2v8h2Zm10,52h8V94h-8Zm48,0h8V94h-8ZM-131,2h8V0h-8Zm-10,90h-2v4h4V94h-2ZM-99,2h8V0h-8Zm16,0h8V0h-8Zm-32,0h8V0h-8ZM0,4H2V2H4V0H0ZM60,96h8V94H60ZM28,96h8V94H28Zm16,0h8V94H44ZM94,68h2V60H94ZM2,92H0v4H4V94H2ZM94,52h2V44H94ZM60,2h8V0H60ZM12,2h8V0H12Zm0,94h8V94H12ZM94,84h2V76H94ZM44,2h8V0H44ZM28,2h8V0H28ZM2,60H0v8H2ZM94,36h2V28H94ZM2,28H0v8H2ZM2,44H0v8H2ZM76,96h8V94H76ZM76,2h8V0H76ZM94,94H92v2h4V92H94ZM2,76H0v8H2ZM2,12H0v8H2Zm92,8h2V12H94ZM92,2h2V4h2V0H92ZM238,37h2V29h-2ZM220,97h8V95h-8Zm18-28h2V61h-2ZM220,3h8V1h-8Zm18,18h2V13h-2Zm0,64h2V77h-2Zm0,10h-2v2h4V93h-2Zm0-42h2V45h-2ZM236,3h2V5h2V1h-4ZM172,97h8V95h-8Zm32,0h8V95h-8Zm-16,0h8V95h-8ZM156,3h8V1h-8ZM146,93h-2v4h4V95h-2ZM204,3h8V1h-8ZM156,97h8V95h-8ZM144,5h2V3h2V1h-4Zm2,8h-2v8h2Zm0,16h-2v8h2ZM188,3h8V1h-8ZM146,45h-2v8h2Zm0,32h-2v8h2ZM172,3h8V1h-8ZM146,61h-2v8h2ZM-107-203h-8v2h8Zm-34-66h-2v8h2Zm0-16h-2v8h2Zm50,82h-8v2h8Zm-50-50h-2v8h2Zm18,50h-8v2h8Zm0-94h-8v2h8Zm-18,92h-2v4h4v-2h-2Zm90-90h2v2h2v-4h-4Zm-90,74h-2v8h2Zm0-16h-2v8h2Zm-2-56h2v-2h2v-2h-4Zm36-4h-8v2h8Zm58,84h2v-8h-2Zm0,10h-2v2h4v-4h-2Zm-10-94h-8v2h8Zm10,68h2v-8h-2Zm0-16h2v-8h-2Zm0-16h2v-8h-2Zm-26-36h-8v2h8Zm26,20h2v-8h-2Zm-10,74h-8v2h8Zm-16,0h-8v2h8Zm-16-94h-8v2h8ZM-275,2h8V0h-8Zm0,94h8V94h-8Zm16,0h8V94h-8Zm16,0h8V94h-8ZM-259,2h8V0h-8Zm-28,2h2V2h2V0h-4Zm2,40h-2v8h2Zm0,48h-2v4h4V94h-2Zm0-64h-2v8h2Zm42-26h8V0h-8Zm-42,10h-2v8h2Zm0,64h-2v8h2Zm58-74h8V0h-8Zm0,94h8V94h-8Zm34-76h2V12h-2Zm0,32h2V44h-2Zm-92,8h-2v8h2Zm90-58h2V4h2V0h-4Zm2,34h2V28h-2ZM-211,2h8V0h-8Zm18,66h2V60h-2Zm-18,28h8V94h-8Zm18-12h2V76h-2Zm0,10h-2v2h4V92h-2Z"/><path class="cls-2" d="M-239-220c14,0,25-5.71,25-13a1,1,0,0,0-.12-.48l-24-44a1,1,0,0,0-1.76,0l-24,44a1,1,0,0,0-.12.48C-264-225.71-253-220-239-220Zm0-54.95,23,42.19c-.28,5.86-10.7,10.76-23,10.76s-22.71-4.9-23-10.76ZM-97-95.71a1,1,0,0,0-.12-.47l-15-28.29a1,1,0,0,0-1.77,0l-15,28.29a1,1,0,0,0-.12.47c0,4.89,7,8.71,16,8.71S-97-90.83-97-95.71Zm-30,.23,14-26.38,14,26.38C-99.3-91.94-105.6-89-113-89S-126.75-91.94-127-95.48Zm43-13a1,1,0,0,0-1.78,0l-8,15.71a1,1,0,0,0-.11.45c0,3,4,5.29,9,5.29s9-2.32,9-5.29a1,1,0,0,0-.11-.45ZM-84.95-89c-3.94,0-6.74-1.58-7-3.08l7-13.72,7,13.72C-78.21-90.58-81-89-84.95-89Zm19.83-11.47a1,1,0,0,0-1.77,0l-5,9.43a1,1,0,0,0-.12.47c0,2,2.58,3.57,6,3.57s6-1.54,6-3.57a1,1,0,0,0-.12-.47ZM-66-89c-2.19,0-3.71-.78-4-1.39l4-7.47,4,7.47C-62.29-89.78-63.81-89-66-89ZM44.6-70l-1.05-2L34.88-88.47a1,1,0,0,0-1.77,0L24.45-72,23.4-70l-.28.53A1,1,0,0,0,23-69c0,3.36,4.83,6,11,6s11-2.64,11-6a1,1,0,0,0-.12-.47ZM34-65c-5.1,0-8.72-2-9-3.78L25.66-70l1.05-2L34-85.85,41.29-72l1.05,2L43-68.78C42.72-67,39.1-65,34-65ZM180-231c5,0,9-2.32,9-5.29a1,1,0,0,0-.11-.45l-8-15.71a1,1,0,0,0-1.78,0l-8,15.71a1,1,0,0,0-.11.45C171-233.32,175-231,180-231Zm0-18.8,7,13.72c-.24,1.5-3,3.08-7,3.08s-6.74-1.58-7-3.08ZM-222,41.53a1,1,0,0,0-.12-.48l-13-23.57a1,1,0,0,0-1.75,0l-13,23.57a1,1,0,0,0-.12.48c0,4.17,6.15,7.43,14,7.43S-222,45.7-222,41.53ZM-236,47c-6.86,0-11.7-2.69-12-5.2L-236,20l12,21.73C-224.3,44.27-229.14,47-236,47Zm-24.12-12.48a1,1,0,0,0-1.75,0l-13,23.57a1,1,0,0,0-.12.48c0,4.17,6.15,7.43,14,7.43s14-3.26,14-7.43a1,1,0,0,0-.12-.48ZM-261,64c-6.86,0-11.7-2.69-12-5.2L-261,37l12,21.73C-249.3,61.27-254.14,64-261,64Zm43.88-17.48a1,1,0,0,0-1.75,0l-13,23.57a1,1,0,0,0-.12.48c0,4.17,6.15,7.43,14,7.43s14-3.26,14-7.43a1,1,0,0,0-.12-.48ZM-218,76c-6.86,0-11.7-2.69-12-5.2L-218,49l12,21.73C-206.3,73.27-211.14,76-218,76Zm-24.14-39c0,3.28,4.65,7,6.14,7s6.14-3.72,6.14-7a3.83,3.83,0,0,0-3.83-4h-.06a4.65,4.65,0,0,0-2.25.75,4.73,4.73,0,0,0-2.32-.75A3.83,3.83,0,0,0-242.14,37Zm6.84-1.26a2.62,2.62,0,0,1,1.64-.74,1.86,1.86,0,0,1,1.8,2c0,2-3.19,4.61-4.14,5-1-.37-4.14-2.94-4.14-5a1.85,1.85,0,0,1,1.77-2,2.6,2.6,0,0,1,1.67.74A1,1,0,0,0-235.3,35.7Zm570.55.3a11,11,0,0,0,0,22h0a11,11,0,0,0,0-22Zm0,20a9,9,0,1,1,9-9A9,9,0,0,1,335.25,56Zm0-15a4,4,0,0,0-4,4h2a2,2,0,0,1,4,0c0,.67-.5,1.05-1.3,1.62a3,3,0,0,0-1.7,2.38h2a2.75,2.75,0,0,1,.85-.74A3.82,3.82,0,0,0,335.25,41Zm0,9a1.5,1.5,0,1,0,1.5,1.5A1.5,1.5,0,0,0,335.25,50Zm5.16-144.29c-.64.23-1.29.43-1.95.6L348-75.91c-.27,3.77-7,6.91-15,6.91s-14.72-3.14-15-6.91l9.53-17.78c-.66-.17-1.31-.37-1.95-.6l-9.47,17.67a1,1,0,0,0-.12.47C316-71,323.47-67,333-67s17-4,17-9.14a1,1,0,0,0-.12-.47ZM-70.12-233.49l-24-44a1,1,0,0,0-1.76,0l-24,44a1,1,0,0,0-.12.48c0,7.3,11,13,25,13s25-5.71,25-13A1,1,0,0,0-70.12-233.49ZM-95-222c-12.3,0-22.71-4.9-23-10.76l23-42.19,11.14,20.44a1,1,0,0,0-.12.29l-1.82,9.1-7.08-.89a1,1,0,0,0-1.06.64l-3,8a1,1,0,0,0,.58,1.29A1,1,0,0,0-96-236a1,1,0,0,0,.94-.65l2.72-7.27,7.22.9a1,1,0,0,0,1.1-.8l1.61-8L-72-232.76C-72.29-226.91-82.7-222-95-222Zm428.2,98h0a1,1,0,0,0-.87.5l-11.1,19.29a16.11,16.11,0,0,0,1.48,1.44L333.18-121l10.14,18.18a16.09,16.09,0,0,0,1.48-1.44l-10.73-19.25A1,1,0,0,0,333.2-124ZM-221,62v8a1,1,0,0,0,1,1h4a1,1,0,0,0,1-1,1,1,0,0,0-1-1h-3V67h2a1,1,0,0,0,1-1,1,1,0,0,0-1-1h-2V63h3a1,1,0,0,0,1-1,1,1,0,0,0-1-1h-4A1,1,0,0,0-221,62Zm-43-12a1,1,0,0,0,1,1h1v6h-1a1,1,0,0,0-1,1,1,1,0,0,0,1,1h4a1,1,0,0,0,1-1,1,1,0,0,0-1-1h-1V51h1a1,1,0,0,0,1-1,1,1,0,0,0-1-1h-4A1,1,0,0,0-264,50ZM188.27-112l4.27-7.9,4.27,7.9h2.27l-5.67-10.48a1,1,0,0,0-1.76,0L186-112ZM335-240c10.65,0,19-4.39,19-10a1,1,0,0,0-.12-.48l-18-33a1,1,0,0,0-1.76,0l-18,33a1,1,0,0,0-.12.48C316-244.39,324.35-240,335-240Zm0-40.91,17,31.15c-.28,4.23-7.95,7.76-17,7.76s-16.71-3.53-17-7.76ZM-218.85-101.14l-7.27-13.34a1,1,0,0,0-1.76,0l-7.27,13.34-.62,1.14-4.1,7.52A1,1,0,0,0-240-92c0,3.92,5.71,7,13,7s13-3.08,13-7a1,1,0,0,0-.12-.48l-4.1-7.52ZM-227-87c-6.27,0-10.71-2.47-11-4.77l11-20.14,11,20.14C-216.29-89.47-220.73-87-227-87Z"/><path class="cls-1" d="M26,61.62a1,1,0,0,1-1-.84c-.38-2.33.42-9.45,6.13-19.76S42.48,26.27,44.66,25.35a1,1,0,0,1,1.38.76c.38,2.33-.42,9.45-6.13,19.76S28.56,60.63,26.39,61.55A1,1,0,0,1,26,61.62ZM44.1,28c-2.61,1.86-7,6.47-11.2,14s-5.76,13.73-6,16.93c2.61-1.86,7-6.47,11.2-14h0C42.33,37.36,43.91,31.18,44.1,28Z"/><path class="cls-2" d="M75,66H25a1,1,0,0,1-.53-.15l-1-.65c-2.29-1.29-3-4.72-2-9.94A56.85,56.85,0,0,1,27.71,39,56.85,56.85,0,0,1,38.18,25c3.92-3.6,7.21-4.82,9.52-3.54l.15.1.79.64a1,1,0,0,1,.21.23l27,42A1,1,0,0,1,75,66ZM25.29,64H73.17L47.25,23.67l-.58-.48c-1.44-.71-4.09.52-7.12,3.3A54.83,54.83,0,0,0,29.46,40a54.83,54.83,0,0,0-6.07,15.68c-.77,4.12-.38,7,1,7.83l0,0Z"/></svg>