<svg id="Illustrations" xmlns="http://www.w3.org/2000/svg" viewBox="0 0 96 96"><defs><style>.cls-1{fill:#ddd;}.cls-2{fill:#aaa;}</style></defs><title>2147_LISTING-QUALITY_r2v4c_MECH_OL.png</title><path class="cls-1" d="M-102.08-95.39a1,1,0,0,0-1.31-.53l-8.94,3.83-2.36-1A3,3,0,0,0-114-95a3,3,0,0,0-3-3,3,3,0,0,0-3,3,3,3,0,0,0,2.73,3l2.4,1-2.4,1A3,3,0,0,0-120-87a3,3,0,0,0,3,3,3,3,0,0,0,3-3,3,3,0,0,0-.7-1.9l2.36-1,8.94,3.83A1,1,0,0,0-103-86a1,1,0,0,0,.92-.61,1,1,0,0,0-.53-1.31L-109.8-91l7.19-3.08A1,1,0,0,0-102.08-95.39ZM-117-94a1,1,0,0,1-1-1,1,1,0,0,1,1-1,1,1,0,0,1,1,1A1,1,0,0,1-117-94Zm0,8a1,1,0,0,1-1-1,1,1,0,0,1,1-1,1,1,0,0,1,1,1A1,1,0,0,1-117-86Zm476-26H347v-8.49A11.52,11.52,0,0,0,335.5-132,11.52,11.52,0,0,0,324-120.49V-112H312a1,1,0,0,0-1,1v42a1,1,0,0,0,1,1h47a1,1,0,0,0,1-1v-42A1,1,0,0,0,359-112Zm-33-8.49a9.51,9.51,0,0,1,9.5-9.51,9.51,9.51,0,0,1,9.5,9.51V-112H326ZM358-70H313v-40h45ZM321.42-89.08,325-86.53l-1.42,4.32a1,1,0,0,0,.15.91,1,1,0,0,0,.83.4l4.28-.15,1.26,4.33a1,1,0,0,0,.66.68,1,1,0,0,0,.3,0,1,1,0,0,0,.63-.23L335.08-79l3.41,2.7a1,1,0,0,0,.93.17,1,1,0,0,0,.65-.68l1.2-4.35,4.28.08a1,1,0,0,0,.83-.41,1,1,0,0,0,.14-.91L345-86.69l3.55-2.61a1,1,0,0,0,.41-.81,1,1,0,0,0-.42-.81L345-93.47l1.42-4.32a1,1,0,0,0-.15-.91,1,1,0,0,0-.83-.4l-4.28.15-1.26-4.33a1,1,0,0,0-.66-.68,1,1,0,0,0-.93.18L334.92-101l-3.41-2.7a1,1,0,0,0-.93-.17,1,1,0,0,0-.65.68l-1.2,4.35-4.28-.08a.92.92,0,0,0-.83.41,1,1,0,0,0-.14.91L325-93.31l-3.55,2.61a1,1,0,0,0-.41.81A1,1,0,0,0,321.42-89.08Zm5.32-3.05a1,1,0,0,0,.35-1.13l-1.26-3.64,3.63.07a1,1,0,0,0,1-.73l1-3.64L334.31-99a1,1,0,0,0,1.25,0l2.82-2.3,1.06,3.63a1,1,0,0,0,1,.72l3.63-.13-1.2,3.66a1,1,0,0,0,.37,1.13l3.06,2.17-3,2.22a1,1,0,0,0-.35,1.13l1.26,3.64-3.63-.07a1.06,1.06,0,0,0-1,.73l-1,3.64L335.69-81a1,1,0,0,0-1.25,0l-2.82,2.3-1.06-3.63a1,1,0,0,0-1-.72h0l-3.62.13,1.2-3.66a1,1,0,0,0-.37-1.13l-3.06-2.17ZM335.17-85c2.85,0,5-1.35,5-3.14a1,1,0,0,0-.11-.45l-4-7.86a1,1,0,0,0-1.78,0l-4,7.86a1,1,0,0,0-.11.45C330.17-86.35,332.32-85,335.17-85Zm0-8.8,3,5.8a3.71,3.71,0,0,1-3,1,3.71,3.71,0,0,1-3-1ZM87-79H9a1,1,0,0,0-1,1v15a1,1,0,0,0,1,1H87a1,1,0,0,0,1-1V-78A1,1,0,0,0,87-79ZM86-64H10V-77h4v6a1,1,0,0,0,1,1,1,1,0,0,0,1-1v-6h4v9a1,1,0,0,0,1,1,1,1,0,0,0,1-1v-9h4v6a1,1,0,0,0,1,1,1,1,0,0,0,1-1v-6h4v9a1,1,0,0,0,1,1,1,1,0,0,0,1-1v-9h4v6a1,1,0,0,0,1,1,1,1,0,0,0,1-1v-6h4v9a1,1,0,0,0,1,1,1,1,0,0,0,1-1v-9h4v6a1,1,0,0,0,1,1,1,1,0,0,0,1-1v-6h4v9a1,1,0,0,0,1,1,1,1,0,0,0,1-1v-9h4v6a1,1,0,0,0,1,1,1,1,0,0,0,1-1v-6h4v9a1,1,0,0,0,1,1,1,1,0,0,0,1-1v-9h4v6a1,1,0,0,0,1,1,1,1,0,0,0,1-1v-6h4v9a1,1,0,0,0,1,1,1,1,0,0,0,1-1v-9h4Zm137-7v-62a1,1,0,0,0-1-1H160a1,1,0,0,0-1,1v62a1,1,0,0,0,1,1h6.4l1.05-2H161v-28h29v28h-3.45l1.05,2H195v5a1,1,0,0,0,1,1h19a1,1,0,0,0,1-1v-5h6A1,1,0,0,0,223-71Zm-62-61h23.93A26.3,26.3,0,0,1,161-108.07Zm29,30H161v-4.07A28.28,28.28,0,0,0,186.93-132H190Zm24,36H197V-80h17Zm7-6h-5v-9a1,1,0,0,0-1-1h-8v-3.35l5.65-4.89a1,1,0,0,0,.1-1.41,1,1,0,0,0-1.41-.1L207-88v-7a1,1,0,0,0-1-1,1,1,0,0,0-1,1v7l-4.35-3.73a1,1,0,0,0-1.41.11,1,1,0,0,0,.11,1.41L205-85.4V-82h-9a1,1,0,0,0-1,1v9h-3v-28h29Zm0-30H192v-30h3.07A28.28,28.28,0,0,0,221-106.07Zm0-6.07A26.3,26.3,0,0,1,197.07-132H221ZM336-241v15a1,1,0,0,0,1,1h15a1,1,0,0,0,1-1v-15a1,1,0,0,0-1-1H337A1,1,0,0,0,336-241Zm2,1h13v13H338Zm0-5a9,9,0,0,0,9-9,9,9,0,0,0-9-9,9,9,0,0,0-9,9A9,9,0,0,0,338-245Zm0-16a7,7,0,0,1,7,7,7,7,0,0,1-7,7,7,7,0,0,1-7-7A7,7,0,0,1,338-261Zm-3,49a30,30,0,0,0,30-30,30.05,30.05,0,0,0-21-28.62v-1.25a13,13,0,0,0,7.5,2.39,13,13,0,0,0,9.21-3.81,1,1,0,0,0,0-1.41,1,1,0,0,0-1.41,0,11,11,0,0,1-15.58,0,1,1,0,0,0-.33-.22A1,1,0,0,0,343-275h-.12l5.89-7.16a1,1,0,0,0,.22-.76,1,1,0,0,0-.4-.68l-3-2.2a1,1,0,0,0-1-.12L340-284.08l-4.63-1.85a1,1,0,0,0-.74,0L330-284.1l-3.6-1.8a1,1,0,0,0-.89,0l-4,2a1,1,0,0,0-.53.68,1,1,0,0,0,.2.84l6,7.37H327a1,1,0,0,0-1,1v3.38A30.05,30.05,0,0,0,305-242,30,30,0,0,0,335-212Zm-11.44-70.66,2.44-1.22,3.55,1.78a1,1,0,0,0,.82,0l4.63-1.85,4.63,1.85a1,1,0,0,0,.74,0l4.48-1.79,1.7,1.25L340.29-275h-10.5ZM342-273v2H328v-2Zm-14.4,4h14.8A28,28,0,0,1,363-242a28,28,0,0,1-28,28,28,28,0,0,1-28-28A28,28,0,0,1,327.6-269ZM443,22V73a1,1,0,0,0,1,1h68a1,1,0,0,0,1-1V22a1,1,0,0,0-1-1H444A1,1,0,0,0,443,22Zm2,1h66V72H445ZM516.69-81.73l-18-17a1,1,0,0,0-1.39,0l-1.79,1.79-4.69-4.69A19.9,19.9,0,0,0,496-115a20,20,0,0,0-20-20,20,20,0,0,0-20,20,20,20,0,0,0,20,20,19.9,19.9,0,0,0,13.4-5.19l4.69,4.69-1.79,1.79A1,1,0,0,0,492-93a1,1,0,0,0,.31.71l18,17A1,1,0,0,0,511-75a1,1,0,0,0,.71-.29l5-5A1,1,0,0,0,517-81,1,1,0,0,0,516.69-81.73ZM476-97a18,18,0,0,1-18-18,18,18,0,0,1,18-18,18,18,0,0,1,18,18A18,18,0,0,1,476-97Zm35,19.61L494.43-93,498-96.61,514.57-81ZM470.59-225.94a4.42,4.42,0,0,0,3.1-1.34,1,1,0,0,0,0-1.41,1,1,0,0,0-1.41,0,2.53,2.53,0,0,1-3.63,0,1,1,0,0,0-1.41,0,1,1,0,0,0,0,1.41A5,5,0,0,0,470.59-225.94Zm11.69,4.25A6.23,6.23,0,0,1,478-220a6.23,6.23,0,0,1-4.28-1.69,1,1,0,0,0-1.41,0,1,1,0,0,0,0,1.41A8.12,8.12,0,0,0,478-218a8.22,8.22,0,0,0,5.72-2.31,1,1,0,0,0,0-1.41A1,1,0,0,0,483-222,1,1,0,0,0,482.28-221.69Zm3.31-4.25a4.42,4.42,0,0,0,3.1-1.34,1,1,0,0,0,0-1.41,1,1,0,0,0-1.41,0,2.53,2.53,0,0,1-3.63,0,1,1,0,0,0-1.41,0,1,1,0,0,0,0,1.41A5,5,0,0,0,485.59-225.94ZM466.92-210.6a24.22,24.22,0,0,0-9.74,8,1,1,0,0,0,.24,1.39,1,1,0,0,0,.58.16v0h8v-2h-5.94a22.65,22.65,0,0,1,9.43-6.5A24.88,24.88,0,0,0,478-208a24.88,24.88,0,0,0,8.52-1.5,22.65,22.65,0,0,1,9.43,6.5H490v2h8a1,1,0,0,0,.58-.18,1,1,0,0,0,.24-1.39,24.22,24.22,0,0,0-9.74-8A25,25,0,0,0,503-233a24.88,24.88,0,0,0-6.07-16.3,6.07,6.07,0,0,1-.75,2.24A22.88,22.88,0,0,1,501-233a23,23,0,0,1-14.53,21.38,22.77,22.77,0,0,1-3.62,1.11A23,23,0,0,1,478-210a23,23,0,0,1-4.85-.52,22.77,22.77,0,0,1-3.62-1.11A23,23,0,0,1,455-233a22.88,22.88,0,0,1,4.81-14.05,6.07,6.07,0,0,1-.75-2.24A24.88,24.88,0,0,0,453-233,25,25,0,0,0,466.92-210.6Zm-522,132.23,0-.07a1,1,0,0,0-.07-.13l-16-23A1,1,0,0,0-72-102h-4.32l1.09,2h2.7l14.61,21h-76.24l13.7-21h27.68l1.09-2H-121a1,1,0,0,0-.84.45l-15,23a1,1,0,0,0-.05.11l0,.08A1,1,0,0,0-137-78v25h2V-77h6v22h-3v2h8v-2h-3V-69h62v14h-3v2h8v-2h-3V-77h6v24h2V-78A1,1,0,0,0-55.07-78.36ZM-65-71h-62v-6h62ZM524,84h2V76h-2Zm-92-8h-2v8h2Zm0-48h-2v8h2Zm0,16h-2v8h2Zm0,16h-2v8h2Zm92,8h2V60h-2ZM474,96h8V94h-8Zm50-60h2V28h-2ZM442,96h8V94h-8Zm16,0h8V94h-8ZM432,12h-2v8h2Zm-2-8h2V2h2V0h-4Zm94,16h2V12h-2ZM522,2h2V4h2V0h-4ZM432,92h-2v4h4V94h-2Zm92-40h2V44h-2ZM450,0h-8V2h8Zm8,2h8V0h-8Zm24,0V0h-8V2Zm42,92h-2v2h4V92h-2ZM490,2h8V0h-8Zm16,94h8V94h-8Zm-16,0h8V94h-8ZM506,2h8V0h-8ZM-142-253h-2v8h2Zm0,16h-2v8h2Zm50-60h-8v2h8Zm-50,28h-2v8h2Zm92,66h-2v2h4v-4h-2Zm-92-2h-2v4h4v-2h-2Zm34-92h-8v2h8Zm16,94h-8v2h8Zm-52-90h2v-2h2v-2h-4Zm36,90h-8v2h8Zm-34-18h-2v8h2Zm92-56h2v-8h-2Zm0,64h2v-8h-2Zm-10,10h-8v2h8Zm0-94h-8v2h8Zm-64,0h-8v2h8Zm0,94h-8v2h8Zm74-58h2v-8h-2Zm-92-24h-2v8h2Zm92,56h2v-8h-2Zm-2-66h2v2h2v-4h-4Zm2,50h2v-8h-2Zm-26,42h-8v2h8Zm0-94h-8v2h8Zm221,12h-2v8h2Zm18,82h-8v2h8Zm48,0h-8v2h8Zm-68-90h2v-2h2v-2h-4Zm20-4h-8v2h8Zm-18,92h-2v4h4v-2h-2Zm34-92h-8v2h8Zm0,94h-8v2h8Zm-34-66h-2v8h2Zm66-28h-8v2h8Zm-16,94h-8v2h8Zm24,2h8v-2h-8Zm18-60h2v-8h-2Zm0,16h2v-8h-2Zm0,16h2v-8h-2Zm0,16h2v-8h-2Zm0-64h2v-8h-2Zm-2-18h2v2h2v-4h-4Zm-40-2h-8v2h8Zm42,94h-2v2h4v-4h-2Zm-18-92h8v-2h-8Zm-74,58h-2v8h2Zm0-16h-2v8h2Zm0,32h-2v8h2Zm144,0h-2v8h2Zm92-56h2v-8h-2Zm-2-18h2v2h2v-4h-4Zm-40-2h-8v2h8Zm16,94h-8v2h8Zm8,2h8v-2h-8Zm18-60h2v-8h-2Zm-94-32h2v-2h2v-2h-4Zm94,80h2v-8h-2Zm-42,10h-8v2h8Zm42,0h-2v2h4v-4h-2Zm-92-2h-2v4h4v-2h-2Zm34-92h-8v2h8Zm58,68h2v-8h-2Zm0-16h2v-8h-2Zm-92,8h-2v8h2Zm0-16h-2v8h2Zm66-44h-8v2h8Zm-66,28h-2v8h2Zm0-16h-2v8h2Zm18-12h-8v2h8Zm16,94h-8v2h8Zm-24,2h8v-2h-8Zm64-94h8v-2h-8Zm87-2h-8v2h8Zm24,94v2h8v-2Zm50-58h2v-8h-2Zm0-16h2v-8h-2Zm-90,74h-2v-2h-2v4h4Zm-2-82h-2v8h2Zm0-10h2v-2h-4v4h2Zm0,26h-2v8h2Zm18,66h-8v2h8Zm-18-18h-2v8h2Zm0-32h-2v8h2Zm34-44h-8v2h8Zm-34,60h-2v8h2Zm92-8h2v-8h-2Zm0,16h2v-8h-2Zm0,16h2v-8h-2Zm-10,10h-8v2h8Zm10,0h-2v2h4v-4h-2Zm-10-94h-8v2h8Zm-32,0h-8v2h8Zm40,0v2h2v2h2v-4Zm-24,0h-8v2h8ZM-144-145h2v-2h2v-2h-4Zm2,24h-2v8h2Zm0,64h-2v4h4v-2h-2Zm92-40h2v-8h-2Zm-92-40h-2v8h2Zm0,64h-2v8h2Zm0-16h-2v8h2Zm0-16h-2v8h2Zm92-8h2v-8h-2ZM-84-53h8v-2h-8Zm-8-96h-8v2h8Zm-16,0h-8v2h8Zm32,0h-8v2h8Zm26,94h-2v2h4v-4h-2Zm0-26h2v-8h-2Zm0,16h2v-8h-2Zm-50,12h8v-2h-8Zm-24-96h-8v2h8Zm8,96h8v-2h-8Zm66-76h2v-8h-2Zm-10-20h-8v2h8Zm8,2h2v2h2v-4h-4ZM76-52h8v-2H76Zm8-96H76v2h8ZM68-54H60v2h8Zm0-94H60v2h8Zm-16,0H44v2h8ZM94-54H92v2h4v-4H94Zm0-74h2v-8H94Zm0,16h2v-8H94Zm-2-34h2v2h2v-4H92Zm2,50h2v-8H94Zm0,16h2v-8H94Zm0,16h2v-8H94ZM20-148H12v2h8ZM2-88H0v8H2Zm0-32H0v8H2Zm34-28H28v2h8ZM2-104H0v8H2ZM2-56H0v4H4v-2H2ZM2-72H0v8H2ZM0-144H2v-2H4v-2H0ZM12-52h8v-2H12Zm24-2H28v2h8ZM2-136H0v8H2ZM52-54H44v2h8Zm143-94h-8v2h8Zm-16,0h-8v2h8Zm-16,0h-8v2h8Zm-18,28h-2v8h2Zm66-28h-8v2h8Zm-66,12h-2v8h2Zm0,32h-2v8h2Zm0,16h-2v8h2Zm0,16h-2v8h2Zm74,20h8v-2h-8Zm-40-2h-8v2h8Zm58-26h2v-8h-2ZM211-54h-8v2h8Zm26-10h2v-8h-2ZM195-54h-8v2h8Zm-40,2h8v-2h-8Zm-12-92h2v-2h2v-2h-4Zm2,88h-2v4h4v-2h-2Zm92,2h-2v2h4v-4h-2Zm-2-92h2v2h2v-4h-4Zm2,18h2v-8h-2Zm-18-18h8v-2h-8Zm18,34h2v-8h-2Zm0,16h2v-8h-2Zm52,8h-2v8h2Zm34,34h-8v2h8ZM289-72h-2v8h2Zm10,20h8v-2h-8Zm40-2h-8v2h8Zm-52-90h2v-2h2v-2h-4Zm12-2h8v-2h-8Zm32,0h8v-2h-8Zm50,82h2v-8h-2Zm0-16h2v-8h-2Zm0,26h-2v2h4v-4h-2Zm0-42h2v-8h-2Zm-2-50h2v2h2v-4h-4Zm2,34h2v-8h-2Zm-34-34h8v-2h-8Zm34,18h2v-8h-2Zm-92-8h-2v8h2Zm0,80h-2v4h4v-2h-2Zm74-90h8v-2h-8Zm-48,0h8v-2h-8Zm48,94h8v-2h-8Zm-74-52h-2v8h2Zm66,50h-8v2h8Zm-66-66h-2v8h2ZM76,2h8V0H76Zm0,94h8V94H76ZM94,20h2V12H94Zm0,16h2V28H94Zm0,16h2V44H94ZM92,2h2V4h2V0H92Zm2,82h2V76H94Zm0-16h2V60H94Zm0,26H92v2h4V92H94ZM0,4H2V2H4V0H0ZM28,96h8V94H28ZM2,12H0v8H2ZM2,28H0v8H2ZM44,96h8V94H44ZM2,60H0v8H2ZM2,76H0v8H2ZM2,44H0v8H2ZM12,96h8V94H12Zm48,0h8V94H60ZM12,2h8V0H12ZM2,92H0v4H4V94H2ZM44,2h8V0H44ZM60,2h8V0H60ZM28,2h8V0H28ZM143,4h2V2h2V0h-4Zm60,92h8V94h-8Zm-32,0h8V94h-8Zm16,0h8V94h-8Zm50-28h2V60h-2ZM145,92h-2v4h4V94h-2Zm92-40h2V44h-2ZM203,2h8V0h-8ZM155,2h8V0h-8Zm0,94h8V94h-8Zm82-12h2V76h-2ZM187,2h8V0h-8ZM171,2h8V0h-8ZM145,60h-2v8h2Zm92-24h2V28h-2Zm-92-8h-2v8h2Zm0,16h-2v8h2Zm74,52h8V94h-8Zm0-94h8V0h-8Zm18,92h-2v2h4V92h-2ZM145,76h-2v8h2Zm0-64h-2v8h2Zm92,8h2V12h-2ZM235,2h2V4h2V0h-4ZM381,37h2V29h-2ZM363,97h8V95h-8Zm18-28h2V61h-2ZM363,3h8V1h-8Zm18,18h2V13h-2Zm0,64h2V77h-2Zm0,10h-2v2h4V93h-2Zm0-42h2V45h-2ZM379,3h2V5h2V1h-4ZM315,97h8V95h-8Zm32,0h8V95h-8Zm-16,0h8V95h-8ZM299,3h8V1h-8ZM289,93h-2v4h4V95h-2ZM347,3h8V1h-8ZM299,97h8V95h-8ZM287,5h2V3h2V1h-4Zm2,8h-2v8h2Zm0,16h-2v8h2ZM331,3h8V1h-8ZM289,45h-2v8h2Zm0,32h-2v8h2ZM315,3h8V1h-8ZM289,61h-2v8h2ZM36-203H28v2h8ZM2-269H0v8H2Zm0-16H0v8H2Zm50,82H44v2h8ZM2-253H0v8H2Zm18,50H12v2h8Zm0-94H12v2h8ZM2-205H0v4H4v-2H2Zm90-90h2v2h2v-4H92ZM2-221H0v8H2Zm0-16H0v8H2ZM0-293H2v-2H4v-2H0Zm36-4H28v2h8Zm58,84h2v-8H94Zm0,10H92v2h4v-4H94ZM84-297H76v2h8Zm10,68h2v-8H94Zm0-16h2v-8H94Zm0-16h2v-8H94ZM68-297H60v2h8Zm26,20h2v-8H94ZM84-203H76v2h8Zm-16,0H60v2h8ZM52-297H44v2h8ZM-132,2h8V0h-8Zm0,94h8V94h-8Zm16,0h8V94h-8Zm16,0h8V94h-8ZM-116,2h8V0h-8Zm-28,2h2V2h2V0h-4Zm2,40h-2v8h2Zm0,48h-2v4h4V94h-2Zm0-64h-2v8h2Zm42-26h8V0h-8Zm-42,10h-2v8h2Zm0,64h-2v8h2ZM-84,2h8V0h-8Zm0,94h8V94h-8Zm34-76h2V12h-2Zm0,32h2V44h-2Zm-92,8h-2v8h2ZM-52,2h2V4h2V0h-4Zm2,34h2V28h-2ZM-68,2h8V0h-8Zm18,66h2V60h-2ZM-68,96h8V94h-8Zm18-12h2V76h-2Zm0,10h-2v2h4V92h-2Z"/><path class="cls-2" d="M-96-220c14,0,25-5.71,25-13a1,1,0,0,0-.12-.48l-24-44a1,1,0,0,0-1.76,0l-24,44a1,1,0,0,0-.12.48C-121-225.71-110-220-96-220Zm0-54.95,23,42.19C-73.29-226.91-83.7-222-96-222s-22.71-4.9-23-10.76ZM46-95.71a1,1,0,0,0-.12-.47l-15-28.29a1,1,0,0,0-1.77,0l-15,28.29a1,1,0,0,0-.12.47C14-90.83,21-87,30-87S46-90.83,46-95.71Zm-30,.23,14-26.38L44-95.48C43.7-91.94,37.4-89,30-89S16.25-91.94,16-95.48Zm43-13a1,1,0,0,0-1.78,0l-8,15.71a1,1,0,0,0-.11.45c0,3,4,5.29,9,5.29s9-2.32,9-5.29a1,1,0,0,0-.11-.45ZM58.05-89c-3.94,0-6.74-1.58-7-3.08l7-13.72,7,13.72C64.79-90.58,62-89,58.05-89Zm19.83-11.47a1,1,0,0,0-1.77,0l-5,9.43a1,1,0,0,0-.12.47c0,2,2.58,3.57,6,3.57s6-1.54,6-3.57a1,1,0,0,0-.12-.47ZM77-89c-2.19,0-3.71-.78-4-1.39l4-7.47,4,7.47C80.71-89.78,79.19-89,77-89ZM187.6-70l-1.05-2-8.67-16.47a1,1,0,0,0-1.77,0L167.45-72l-1.05,2-.28.53A1,1,0,0,0,166-69c0,3.36,4.83,6,11,6s11-2.64,11-6a1,1,0,0,0-.12-.47ZM177-65c-5.1,0-8.72-2-9-3.78l.64-1.22,1.05-2L177-85.85,184.29-72l1.05,2,.64,1.22C185.72-67,182.1-65,177-65ZM323-231c5,0,9-2.32,9-5.29a1,1,0,0,0-.11-.45l-8-15.71a1,1,0,0,0-1.78,0l-8,15.71a1,1,0,0,0-.11.45C314-233.32,318-231,323-231Zm0-18.8,7,13.72c-.24,1.5-3,3.08-7,3.08s-6.74-1.58-7-3.08ZM-79,41.53a1,1,0,0,0-.12-.48l-13-23.57a1,1,0,0,0-1.75,0l-13,23.57a1,1,0,0,0-.12.48c0,4.17,6.15,7.43,14,7.43S-79,45.7-79,41.53ZM-93,47c-6.86,0-11.7-2.69-12-5.2L-93,20l12,21.73C-81.3,44.27-86.14,47-93,47Zm-24.12-12.48a1,1,0,0,0-1.75,0l-13,23.57a1,1,0,0,0-.12.48c0,4.17,6.15,7.43,14,7.43s14-3.26,14-7.43a1,1,0,0,0-.12-.48ZM-118,64c-6.86,0-11.7-2.69-12-5.2L-118,37l12,21.73C-106.3,61.27-111.14,64-118,64Zm43.88-17.48a1,1,0,0,0-1.75,0L-88.88,70a1,1,0,0,0-.12.48C-89,74.7-82.85,78-75,78s14-3.26,14-7.43a1,1,0,0,0-.12-.48ZM-75,76c-6.86,0-11.7-2.69-12-5.2L-75,49l12,21.73C-63.3,73.27-68.14,76-75,76ZM-99.14,37c0,3.28,4.65,7,6.14,7s6.14-3.72,6.14-7a3.83,3.83,0,0,0-3.83-4h-.06a4.65,4.65,0,0,0-2.25.75A4.73,4.73,0,0,0-95.31,33,3.83,3.83,0,0,0-99.14,37Zm6.84-1.26A2.62,2.62,0,0,1-90.66,35a1.86,1.86,0,0,1,1.8,2c0,2-3.19,4.61-4.14,5-1-.37-4.14-2.94-4.14-5a1.85,1.85,0,0,1,1.77-2,2.6,2.6,0,0,1,1.67.74A1,1,0,0,0-92.3,35.7Zm570.55.3a11,11,0,0,0,0,22h0a11,11,0,0,0,0-22Zm0,20a9,9,0,1,1,9-9A9,9,0,0,1,478.25,56Zm0-15a4,4,0,0,0-4,4h2a2,2,0,0,1,4,0c0,.67-.5,1.05-1.3,1.62a3,3,0,0,0-1.7,2.38h2a2.75,2.75,0,0,1,.85-.74A3.82,3.82,0,0,0,478.25,41Zm0,9a1.5,1.5,0,1,0,1.5,1.5A1.5,1.5,0,0,0,478.25,50Zm5.16-144.29c-.64.23-1.29.43-1.95.6L491-75.91c-.27,3.77-7,6.91-15,6.91s-14.72-3.14-15-6.91l9.53-17.78c-.66-.17-1.31-.37-1.95-.6l-9.47,17.67a1,1,0,0,0-.12.47C459-71,466.47-67,476-67s17-4,17-9.14a1,1,0,0,0-.12-.47ZM72.88-233.49l-24-44a1,1,0,0,0-1.76,0l-24,44A1,1,0,0,0,23-233c0,7.3,11,13,25,13s25-5.71,25-13A1,1,0,0,0,72.88-233.49ZM48-222c-12.3,0-22.71-4.9-23-10.76l23-42.19,11.14,20.44a1,1,0,0,0-.12.29l-1.82,9.1L50.12-246a1,1,0,0,0-1.06.64l-3,8a1,1,0,0,0,.58,1.29A1,1,0,0,0,47-236a1,1,0,0,0,.94-.65l2.72-7.27,7.22.9a1,1,0,0,0,1.1-.8l1.61-8L71-232.76C70.71-226.91,60.3-222,48-222Zm428.2,98h0a1,1,0,0,0-.87.5l-11.1,19.29a16.11,16.11,0,0,0,1.48,1.44L476.18-121l10.14,18.18a16.09,16.09,0,0,0,1.48-1.44l-10.73-19.25A1,1,0,0,0,476.2-124ZM-78,62v8a1,1,0,0,0,1,1h4a1,1,0,0,0,1-1,1,1,0,0,0-1-1h-3V67h2a1,1,0,0,0,1-1,1,1,0,0,0-1-1h-2V63h3a1,1,0,0,0,1-1,1,1,0,0,0-1-1h-4A1,1,0,0,0-78,62Zm-43-12a1,1,0,0,0,1,1h1v6h-1a1,1,0,0,0-1,1,1,1,0,0,0,1,1h4a1,1,0,0,0,1-1,1,1,0,0,0-1-1h-1V51h1a1,1,0,0,0,1-1,1,1,0,0,0-1-1h-4A1,1,0,0,0-121,50ZM331.27-112l4.27-7.9,4.27,7.9h2.27l-5.67-10.48a1,1,0,0,0-1.76,0L329-112ZM478-240c10.65,0,19-4.39,19-10a1,1,0,0,0-.12-.48l-18-33a1,1,0,0,0-1.76,0l-18,33a1,1,0,0,0-.12.48C459-244.39,467.35-240,478-240Zm0-40.91,17,31.15c-.28,4.23-7.95,7.76-17,7.76s-16.71-3.53-17-7.76ZM-75.85-101.14l-7.27-13.34a1,1,0,0,0-1.76,0l-7.27,13.34-.62,1.14-4.1,7.52A1,1,0,0,0-97-92c0,3.92,5.71,7,13,7s13-3.08,13-7a1,1,0,0,0-.12-.48l-4.1-7.52ZM-84-87c-6.27,0-10.71-2.47-11-4.77l11-20.14,11,20.14C-73.29-89.47-77.73-87-84-87Z"/><path class="cls-1" d="M47.64,35c-11.79,0-18.4-2.76-20.25-4.21a1,1,0,0,1,0-1.57C29.23,27.76,35.85,25,47.64,25S66,27.76,67.89,29.21a1,1,0,0,1,0,1.57C66,32.24,59.42,35,47.64,35ZM29.95,30c2.89,1.38,9.06,3,17.69,3s14.8-1.62,17.69-3c-2.89-1.38-9.06-3-17.69-3S32.84,28.62,29.95,30Z"/><path class="cls-2" d="M48,76a1,1,0,0,1-.88-.52l-24-44A1,1,0,0,1,23,31V30c0-5.85,12.88-9,25-9s25,3.15,25,9v1a1,1,0,0,1-.12.48l-24,44A1,1,0,0,1,48,76ZM25,30.75,48,72.91,71,30.75V30c0-3.31-9.45-7-23-7s-23,3.69-23,7Z"/></svg>