<svg id="Illustrations" xmlns="http://www.w3.org/2000/svg" viewBox="0 0 96 96"><defs><style>.cls-1{fill:#ddd;}.cls-2{fill:#aaa;}</style></defs><title>2147_LISTING-QUALITY_r2v4c_MECH_OL.png</title><rect class="cls-1" x="76" width="8" height="2"/><rect class="cls-1" x="76" y="94" width="8" height="2"/><rect class="cls-1" x="94" y="12" width="2" height="8"/><rect class="cls-1" x="94" y="28" width="2" height="8"/><rect class="cls-1" x="94" y="44" width="2" height="8"/><polygon class="cls-1" points="92 2 94 2 94 4 96 4 96 0 92 0 92 2"/><rect class="cls-1" x="94" y="76" width="2" height="8"/><rect class="cls-1" x="94" y="60" width="2" height="8"/><polygon class="cls-1" points="94 94 92 94 92 96 96 96 96 92 94 92 94 94"/><polygon class="cls-1" points="0 4 2 4 2 2 4 2 4 0 0 0 0 4"/><rect class="cls-1" x="28" y="94" width="8" height="2"/><rect class="cls-1" y="12" width="2" height="8"/><rect class="cls-1" y="28" width="2" height="8"/><rect class="cls-1" x="44" y="94" width="8" height="2"/><rect class="cls-1" y="60" width="2" height="8"/><rect class="cls-1" y="76" width="2" height="8"/><rect class="cls-1" y="44" width="2" height="8"/><rect class="cls-1" x="12" y="94" width="8" height="2"/><rect class="cls-1" x="60" y="94" width="8" height="2"/><rect class="cls-1" x="12" width="8" height="2"/><polygon class="cls-1" points="2 92 0 92 0 96 4 96 4 94 2 94 2 92"/><rect class="cls-1" x="44" width="8" height="2"/><rect class="cls-1" x="60" width="8" height="2"/><rect class="cls-1" x="28" width="8" height="2"/><path class="cls-2" d="M71,66H21a1,1,0,0,1-.84-1.54l27-42a1,1,0,0,1,.36-.34c6.37-3.49,16.9,3.45,23.48,15.46a39.39,39.39,0,0,1,5.13,17.08c.17,5.49-1.48,9.47-4.65,11.21A1,1,0,0,1,71,66ZM22.83,64h47.9c5.08-3.1,4.43-14.64-1.49-25.45S54,21.15,48.7,23.76Z"/></svg>