<svg id="Illustrations" xmlns="http://www.w3.org/2000/svg" viewBox="0 0 96 96"><defs><style>.cls-1{fill:#ddd;}.cls-2{fill:#aaa;}</style></defs><title>2147_LISTING-QUALITY_r2v4c_MECH_OL.png</title><path class="cls-1" d="M-532.08,52.61a1,1,0,0,0-1.31-.53l-8.94,3.83-2.36-1A3,3,0,0,0-544,53a3,3,0,0,0-3-3,3,3,0,0,0-3,3,3,3,0,0,0,2.73,3l2.4,1-2.4,1A3,3,0,0,0-550,61a3,3,0,0,0,3,3,3,3,0,0,0,3-3,3,3,0,0,0-.7-1.9l2.36-1,8.94,3.83A1,1,0,0,0-533,62a1,1,0,0,0,.92-.61,1,1,0,0,0-.53-1.31L-539.8,57l7.19-3.08A1,1,0,0,0-532.08,52.61ZM-547,54a1,1,0,0,1-1-1,1,1,0,0,1,1-1,1,1,0,0,1,1,1A1,1,0,0,1-547,54Zm0,8a1,1,0,0,1-1-1,1,1,0,0,1,1-1,1,1,0,0,1,1,1A1,1,0,0,1-547,62ZM-71,36H-83V27.51A11.52,11.52,0,0,0-94.5,16,11.52,11.52,0,0,0-106,27.51V36h-12a1,1,0,0,0-1,1V79a1,1,0,0,0,1,1h47a1,1,0,0,0,1-1V37A1,1,0,0,0-71,36Zm-33-8.49A9.51,9.51,0,0,1-94.5,18,9.51,9.51,0,0,1-85,27.51V36h-19ZM-72,78h-45V38h45Zm-36.58-19.08,3.59,2.55-1.42,4.32a1,1,0,0,0,.15.91,1,1,0,0,0,.83.4l4.28-.15,1.26,4.33a1,1,0,0,0,.66.68,1,1,0,0,0,.3,0,1,1,0,0,0,.63-.23L-94.92,69l3.41,2.7a1,1,0,0,0,.93.17,1,1,0,0,0,.65-.68l1.2-4.35,4.28.08a1,1,0,0,0,.83-.41,1,1,0,0,0,.14-.91L-85,61.31l3.55-2.61a1,1,0,0,0,.41-.81,1,1,0,0,0-.42-.81L-85,54.53l1.42-4.32a1,1,0,0,0-.15-.91,1,1,0,0,0-.83-.4l-4.28.15-1.26-4.33a1,1,0,0,0-.66-.68,1,1,0,0,0-.93.18L-95.08,47l-3.41-2.7a1,1,0,0,0-.93-.17,1,1,0,0,0-.65.68l-1.2,4.35-4.28-.08a.92.92,0,0,0-.83.41,1,1,0,0,0-.14.91l1.48,4.29-3.55,2.61a1,1,0,0,0-.41.81A1,1,0,0,0-108.58,58.92Zm5.32-3.05a1,1,0,0,0,.35-1.13l-1.26-3.64,3.63.07a1,1,0,0,0,1-.73l1-3.64L-95.69,49a1,1,0,0,0,1.25,0l2.82-2.3,1.06,3.63a1,1,0,0,0,1,.72l3.63-.13-1.2,3.66a1,1,0,0,0,.37,1.13l3.06,2.17-3,2.22a1,1,0,0,0-.35,1.13l1.26,3.64-3.63-.07a1.06,1.06,0,0,0-1,.73l-1,3.64L-94.31,67a1,1,0,0,0-1.25,0l-2.82,2.3-1.06-3.63a1,1,0,0,0-1-.72h0l-3.62.13,1.2-3.66a1,1,0,0,0-.37-1.13l-3.06-2.17ZM-94.83,63c2.85,0,5-1.35,5-3.14a1,1,0,0,0-.11-.45l-4-7.86a1,1,0,0,0-1.78,0l-4,7.86a1,1,0,0,0-.11.45C-99.83,61.65-97.68,63-94.83,63Zm0-8.8,3,5.8a3.71,3.71,0,0,1-3,1,3.71,3.71,0,0,1-3-1ZM-343,69h-78a1,1,0,0,0-1,1V85a1,1,0,0,0,1,1h78a1,1,0,0,0,1-1V70A1,1,0,0,0-343,69Zm-1,15h-76V71h4v6a1,1,0,0,0,1,1,1,1,0,0,0,1-1V71h4v9a1,1,0,0,0,1,1,1,1,0,0,0,1-1V71h4v6a1,1,0,0,0,1,1,1,1,0,0,0,1-1V71h4v9a1,1,0,0,0,1,1,1,1,0,0,0,1-1V71h4v6a1,1,0,0,0,1,1,1,1,0,0,0,1-1V71h4v9a1,1,0,0,0,1,1,1,1,0,0,0,1-1V71h4v6a1,1,0,0,0,1,1,1,1,0,0,0,1-1V71h4v9a1,1,0,0,0,1,1,1,1,0,0,0,1-1V71h4v6a1,1,0,0,0,1,1,1,1,0,0,0,1-1V71h4v9a1,1,0,0,0,1,1,1,1,0,0,0,1-1V71h4v6a1,1,0,0,0,1,1,1,1,0,0,0,1-1V71h4v9a1,1,0,0,0,1,1,1,1,0,0,0,1-1V71h4Zm137-7V15a1,1,0,0,0-1-1h-62a1,1,0,0,0-1,1V77a1,1,0,0,0,1,1h6.4l1.05-2H-269V48h29V76h-3.45l1.05,2h7.4v5a1,1,0,0,0,1,1h19a1,1,0,0,0,1-1V78h6A1,1,0,0,0-207,77Zm-62-61h23.93A26.3,26.3,0,0,1-269,39.93Zm29,30h-29V41.93A28.28,28.28,0,0,0-243.07,16H-240Zm24,36h-17V68h17Zm7-6h-5V67a1,1,0,0,0-1-1h-8V62.65l5.65-4.89a1,1,0,0,0,.1-1.41,1,1,0,0,0-1.41-.1L-223,60V53a1,1,0,0,0-1-1,1,1,0,0,0-1,1v7l-4.35-3.73a1,1,0,0,0-1.41.11,1,1,0,0,0,.11,1.41L-225,62.6V66h-9a1,1,0,0,0-1,1v9h-3V48h29Zm0-30h-29V16h3.07A28.28,28.28,0,0,0-209,41.93Zm0-6.07A26.3,26.3,0,0,1-232.93,16H-209ZM-94-93v15a1,1,0,0,0,1,1h15a1,1,0,0,0,1-1V-93a1,1,0,0,0-1-1H-93A1,1,0,0,0-94-93Zm2,1h13v13H-92Zm0-5a9,9,0,0,0,9-9,9,9,0,0,0-9-9,9,9,0,0,0-9,9A9,9,0,0,0-92-97Zm0-16a7,7,0,0,1,7,7,7,7,0,0,1-7,7,7,7,0,0,1-7-7A7,7,0,0,1-92-113Zm-3,49A30,30,0,0,0-65-94a30.05,30.05,0,0,0-21-28.62v-1.25a13,13,0,0,0,7.5,2.39,13,13,0,0,0,9.21-3.81,1,1,0,0,0,0-1.41,1,1,0,0,0-1.41,0,11,11,0,0,1-15.58,0,1,1,0,0,0-.33-.22A1,1,0,0,0-87-127h-.12l5.89-7.16a1,1,0,0,0,.22-.76,1,1,0,0,0-.4-.68l-3-2.2a1,1,0,0,0-1-.12L-90-136.08l-4.63-1.85a1,1,0,0,0-.74,0L-100-136.1l-3.6-1.8a1,1,0,0,0-.89,0l-4,2a1,1,0,0,0-.53.68,1,1,0,0,0,.2.84l6,7.37H-103a1,1,0,0,0-1,1v3.38A30.05,30.05,0,0,0-125-94,30,30,0,0,0-95-64Zm-11.44-70.66,2.44-1.22,3.55,1.78a1,1,0,0,0,.82,0l4.63-1.85,4.63,1.85a1,1,0,0,0,.74,0l4.48-1.79,1.7,1.25L-89.71-127h-10.5ZM-88-125v2h-14v-2Zm-14.4,4h14.8A28,28,0,0,1-67-94,28,28,0,0,1-95-66a28,28,0,0,1-28-28A28,28,0,0,1-102.4-121ZM13,170v51a1,1,0,0,0,1,1H82a1,1,0,0,0,1-1V170a1,1,0,0,0-1-1H14A1,1,0,0,0,13,170Zm2,1H81v49H15ZM86.69,66.27l-18-17a1,1,0,0,0-1.39,0L65.5,51.09l-4.69-4.69a20.08,20.08,0,1,0-1.41,1.41l4.69,4.69-1.79,1.79a1,1,0,0,0,0,1.43l18,17a1,1,0,0,0,1.39,0l5-5a1,1,0,0,0,0-1.43ZM46,51A18,18,0,1,1,64,33,18,18,0,0,1,46,51ZM81,70.61,64.43,55,68,51.39,84.57,67ZM40.59-77.94a4.42,4.42,0,0,0,3.1-1.34,1,1,0,0,0,0-1.41,1,1,0,0,0-1.41,0,2.53,2.53,0,0,1-3.63,0,1,1,0,0,0-1.41,0,1,1,0,0,0,0,1.41A5,5,0,0,0,40.59-77.94Zm11.69,4.25A6.23,6.23,0,0,1,48-72a6.23,6.23,0,0,1-4.28-1.69,1,1,0,0,0-1.41,0,1,1,0,0,0,0,1.41A8.12,8.12,0,0,0,48-70a8.22,8.22,0,0,0,5.72-2.31,1,1,0,0,0,0-1.41A1,1,0,0,0,53-74,1,1,0,0,0,52.28-73.69Zm3.31-4.25a4.42,4.42,0,0,0,3.1-1.34,1,1,0,0,0,0-1.41,1,1,0,0,0-1.41,0,2.53,2.53,0,0,1-3.63,0,1,1,0,0,0-1.41,0,1,1,0,0,0,0,1.41A5,5,0,0,0,55.59-77.94ZM36.92-62.6a24.22,24.22,0,0,0-9.74,8,1,1,0,0,0,.24,1.39A1,1,0,0,0,28-53v0h8v-2H30.06a22.65,22.65,0,0,1,9.43-6.5A24.88,24.88,0,0,0,48-60a24.88,24.88,0,0,0,8.52-1.5A22.65,22.65,0,0,1,65.94-55H60v2h8a1,1,0,0,0,.58-.18,1,1,0,0,0,.24-1.39,24.22,24.22,0,0,0-9.74-8A25,25,0,0,0,73-85a24.88,24.88,0,0,0-6.07-16.3,6.07,6.07,0,0,1-.75,2.24A22.88,22.88,0,0,1,71-85,23,23,0,0,1,56.47-63.62a22.77,22.77,0,0,1-3.62,1.11A23,23,0,0,1,48-62a23,23,0,0,1-4.85-.52,22.77,22.77,0,0,1-3.62-1.11A23,23,0,0,1,25-85a22.88,22.88,0,0,1,4.81-14.05,6.07,6.07,0,0,1-.75-2.24A24.88,24.88,0,0,0,23-85,25,25,0,0,0,36.92-62.6Zm-522,132.23,0-.07a1,1,0,0,0-.07-.13l-16-23A1,1,0,0,0-502,46h-4.32l1.09,2h2.7l14.61,21h-76.24l13.7-21h27.68l1.09-2H-551a1,1,0,0,0-.84.45l-15,23a1,1,0,0,0-.05.11l0,.08A1,1,0,0,0-567,70V95h2V71h6V93h-3v2h8V93h-3V79h62V93h-3v2h8V93h-3V71h6V95h2V70A1,1,0,0,0-485.07,69.64ZM-495,77h-62V71h62ZM94,232h2v-8H94ZM2,224H0v8H2Zm0-48H0v8H2Zm0,16H0v8H2Zm0,16H0v8H2Zm92,8h2v-8H94ZM44,244h8v-2H44Zm50-60h2v-8H94ZM12,244h8v-2H12Zm16,0h8v-2H28ZM2,160H0v8H2Zm-2-8H2v-2H4v-2H0Zm94,16h2v-8H94Zm-2-18h2v2h2v-4H92ZM2,240H0v4H4v-2H2Zm92-40h2v-8H94ZM20,148H12v2h8Zm8,2h8v-2H28Zm24,0v-2H44v2Zm42,92H92v2h4v-4H94ZM60,150h8v-2H60Zm16,94h8v-2H76Zm-16,0h8v-2H60Zm16-94h8v-2H76ZM-572-105h-2v8h2Zm0,16h-2v8h2Zm50-60h-8v2h8Zm-50,28h-2v8h2Zm92,66h-2v2h4v-4h-2Zm-92-2h-2v4h4v-2h-2Zm34-92h-8v2h8Zm16,94h-8v2h8Zm-52-90h2v-2h2v-2h-4Zm36,90h-8v2h8Zm-34-18h-2v8h2Zm92-56h2v-8h-2Zm0,64h2v-8h-2Zm-10,10h-8v2h8Zm0-94h-8v2h8Zm-64,0h-8v2h8Zm0,94h-8v2h8Zm74-58h2v-8h-2Zm-92-24h-2v8h2Zm92,56h2v-8h-2Zm-2-66h2v2h2v-4h-4Zm2,50h2v-8h-2Zm-26,42h-8v2h8Zm0-94h-8v2h8Zm221,12h-2v8h2Zm18,82h-8v2h8Zm48,0h-8v2h8Zm-68-90h2v-2h2v-2h-4Zm20-4h-8v2h8Zm-18,92h-2v4h4v-2h-2Zm34-92h-8v2h8Zm0,94h-8v2h8Zm-34-66h-2v8h2Zm66-28h-8v2h8Zm-16,94h-8v2h8Zm24,2h8v-2h-8Zm18-60h2v-8h-2Zm0,16h2v-8h-2Zm0,16h2v-8h-2Zm0,16h2v-8h-2Zm0-64h2v-8h-2Zm-2-18h2v2h2v-4h-4Zm-40-2h-8v2h8Zm42,94h-2v2h4v-4h-2Zm-18-92h8v-2h-8Zm-74,58h-2v8h2Zm0-16h-2v8h2Zm0,32h-2v8h2Zm144,0h-2v8h2Zm92-56h2v-8h-2Zm-2-18h2v2h2v-4h-4Zm-40-2h-8v2h8Zm16,94h-8v2h8Zm8,2h8v-2h-8Zm18-60h2v-8h-2Zm-94-32h2v-2h2v-2h-4Zm94,80h2v-8h-2ZM-91-55h-8v2h8Zm42,0h-2v2h4v-4h-2Zm-92-2h-2v4h4v-2h-2Zm34-92h-8v2h8Zm58,68h2v-8h-2Zm0-16h2v-8h-2Zm-92,8h-2v8h2Zm0-16h-2v8h2Zm66-44h-8v2h8Zm-66,28h-2v8h2Zm0-16h-2v8h2Zm18-12h-8v2h8Zm16,94h-8v2h8Zm-24,2h8v-2h-8Zm64-94h8v-2h-8Zm87-2H12v2h8ZM44-55v2h8v-2Zm50-58h2v-8H94Zm0-16h2v-8H94ZM4-55H2v-2H0v4H4ZM2-137H0v8H2Zm0-10H4v-2H0v4H2Zm0,26H0v8H2ZM20-55H12v2h8ZM2-73H0v8H2Zm0-32H0v8H2Zm34-44H28v2h8ZM2-89H0v8H2Zm92-8h2v-8H94Zm0,16h2v-8H94Zm0,16h2v-8H94ZM84-55H76v2h8Zm10,0H92v2h4v-4H94ZM84-149H76v2h8Zm-32,0H44v2h8Zm40,0v2h2v2h2v-4Zm-24,0H60v2h8ZM-574,3h2V1h2V-1h-4Zm2,24h-2v8h2Zm0,64h-2v4h4V93h-2Zm92-40h2V43h-2Zm-92-40h-2v8h2Zm0,64h-2v8h2Zm0-16h-2v8h2Zm0-16h-2v8h2Zm92-8h2V27h-2Zm-34,60h8V93h-8Zm-8-96h-8V1h8Zm-16,0h-8V1h8Zm32,0h-8V1h8Zm26,94h-2v2h4V91h-2Zm0-26h2V59h-2Zm0,16h2V75h-2Zm-50,12h8V93h-8ZM-554-1h-8V1h8Zm8,96h8V93h-8Zm66-76h2V11h-2ZM-490-1h-8V1h8Zm8,2h2V3h2V-1h-4Zm128,95h8V94h-8Zm8-96h-8V2h8Zm-16,94h-8v2h8Zm0-94h-8V2h8Zm-16,0h-8V2h8Zm42,94h-2v2h4V92h-2Zm0-74h2V12h-2Zm0,16h2V28h-2Zm-2-34h2V4h2V0h-4Zm2,50h2V44h-2Zm0,16h2V60h-2Zm0,16h2V76h-2ZM-410,0h-8V2h8Zm-18,60h-2v8h2Zm0-32h-2v8h2Zm34-28h-8V2h8Zm-34,44h-2v8h2Zm0,48h-2v4h4V94h-2Zm0-16h-2v8h2Zm-2-72h2V2h2V0h-4Zm12,92h8V94h-8Zm24-2h-8v2h8Zm-34-82h-2v8h2Zm50,82h-8v2h8ZM-235,0h-8V2h8Zm-16,0h-8V2h8Zm-16,0h-8V2h8Zm-18,28h-2v8h2Zm66-28h-8V2h8Zm-66,12h-2v8h2Zm0,32h-2v8h2Zm0,16h-2v8h2Zm0,16h-2v8h2Zm74,20h8V94h-8Zm-40-2h-8v2h8Zm58-26h2V60h-2Zm-26,26h-8v2h8Zm26-10h2V76h-2Zm-42,10h-8v2h8Zm-40,2h8V94h-8ZM-287,4h2V2h2V0h-4Zm2,88h-2v4h4V94h-2Zm92,2h-2v2h4V92h-2Zm-2-92h2V4h2V0h-4Zm2,18h2V12h-2ZM-211,2h8V0h-8Zm18,34h2V28h-2Zm0,16h2V44h-2Zm52,8h-2v8h2Zm34,34h-8v2h8Zm-34-18h-2v8h2Zm10,20h8V94h-8Zm40-2h-8v2h8ZM-143,4h2V2h2V0h-4Zm12-2h8V0h-8Zm32,0h8V0h-8Zm50,82h2V76h-2Zm0-16h2V60h-2Zm0,26h-2v2h4V92h-2Zm0-42h2V44h-2ZM-51,2h2V4h2V0h-4Zm2,34h2V28h-2ZM-83,2h8V0h-8Zm34,18h2V12h-2Zm-92-8h-2v8h2Zm0,80h-2v4h4V94h-2ZM-67,2h8V0h-8Zm-48,0h8V0h-8Zm48,94h8V94h-8Zm-74-52h-2v8h2Zm66,50h-8v2h8Zm-66-66h-2v8h2ZM-354,150h8v-2h-8Zm0,94h8v-2h-8Zm18-76h2v-8h-2Zm0,16h2v-8h-2Zm0,16h2v-8h-2Zm-2-50h2v2h2v-4h-4Zm2,82h2v-8h-2Zm0-16h2v-8h-2Zm0,26h-2v2h4v-4h-2Zm-94-90h2v-2h2v-2h-4Zm28,92h8v-2h-8Zm-26-84h-2v8h2Zm0,16h-2v8h2Zm42,68h8v-2h-8Zm-42-36h-2v8h2Zm0,16h-2v8h2Zm0-32h-2v8h2Zm10,52h8v-2h-8Zm48,0h8v-2h-8Zm-48-94h8v-2h-8Zm-10,90h-2v4h4v-2h-2Zm42-90h8v-2h-8Zm16,0h8v-2h-8Zm-32,0h8v-2h-8Zm115,2h2v-2h2v-2h-4Zm60,92h8v-2h-8Zm-32,0h8v-2h-8Zm16,0h8v-2h-8Zm50-28h2v-8h-2Zm-92,24h-2v4h4v-2h-2Zm92-40h2v-8h-2Zm-34-50h8v-2h-8Zm-48,0h8v-2h-8Zm0,94h8v-2h-8Zm82-12h2v-8h-2Zm-50-82h8v-2h-8Zm-16,0h8v-2h-8Zm-26,58h-2v8h2Zm92-24h2v-8h-2Zm-92-8h-2v8h2Zm0,16h-2v8h2Zm74,52h8v-2h-8Zm0-94h8v-2h-8Zm18,92h-2v2h4v-4h-2Zm-92-18h-2v8h2Zm0-64h-2v8h2Zm92,8h2v-8h-2Zm-2-18h2v2h2v-4h-4Zm146,35h2v-8h-2Zm-18,60h8v-2h-8Zm18-28h2v-8h-2Zm-18-66h8v-2h-8Zm18,18h2v-8h-2Zm0,64h2v-8h-2Zm0,10h-2v2h4v-4h-2Zm0-42h2v-8h-2Zm-2-50h2v2h2v-4h-4Zm-64,94h8v-2h-8Zm32,0h8v-2h-8Zm-16,0h8v-2h-8Zm-32-94h8v-2h-8Zm-10,90h-2v4h4v-2h-2Zm58-90h8v-2h-8Zm-48,94h8v-2h-8Zm-12-92h2v-2h2v-2h-4Zm2,8h-2v8h2Zm0,16h-2v8h2Zm42-26h8v-2h-8Zm-42,42h-2v8h2Zm0,32h-2v8h2Zm26-74h8v-2h-8Zm-26,58h-2v8h2ZM-394-55h-8v2h8Zm-34-66h-2v8h2Zm0-16h-2v8h2Zm50,82h-8v2h8Zm-50-50h-2v8h2Zm18,50h-8v2h8Zm0-94h-8v2h8Zm-18,92h-2v4h4v-2h-2Zm90-90h2v2h2v-4h-4Zm-90,74h-2v8h2Zm0-16h-2v8h2Zm-2-56h2v-2h2v-2h-4Zm36-4h-8v2h8Zm58,84h2v-8h-2Zm0,10h-2v2h4v-4h-2Zm-10-94h-8v2h8Zm10,68h2v-8h-2Zm0-16h2v-8h-2Zm0-16h2v-8h-2Zm-26-36h-8v2h8Zm26,20h2v-8h-2Zm-10,74h-8v2h8Zm-16,0h-8v2h8Zm-16-94h-8v2h8ZM-562,150h8v-2h-8Zm0,94h8v-2h-8Zm16,0h8v-2h-8Zm16,0h8v-2h-8Zm-16-94h8v-2h-8Zm-28,2h2v-2h2v-2h-4Zm2,40h-2v8h2Zm0,48h-2v4h4v-2h-2Zm0-64h-2v8h2Zm42-26h8v-2h-8Zm-42,10h-2v8h2Zm0,64h-2v8h2Zm58-74h8v-2h-8Zm0,94h8v-2h-8Zm34-76h2v-8h-2Zm0,32h2v-8h-2Zm-92,8h-2v8h2Zm90-58h2v2h2v-4h-4Zm2,34h2v-8h-2Zm-18-34h8v-2h-8Zm18,66h2v-8h-2Zm-18,28h8v-2h-8Zm18-12h2v-8h-2Zm0,10h-2v2h4v-4h-2Z"/><path class="cls-2" d="M-526-72c14,0,25-5.71,25-13a1,1,0,0,0-.12-.48l-24-44a1,1,0,0,0-1.76,0l-24,44A1,1,0,0,0-551-85C-551-77.71-540-72-526-72Zm0-54.95,23,42.19C-503.29-78.91-513.7-74-526-74s-22.71-4.9-23-10.76ZM-384,52.29a1,1,0,0,0-.12-.47l-15-28.29a1,1,0,0,0-1.77,0l-15,28.29a1,1,0,0,0-.12.47c0,4.89,7,8.71,16,8.71S-384,57.17-384,52.29Zm-30,.23,14-26.38,14,26.38c-.27,3.54-6.56,6.48-14,6.48S-413.75,56.06-414,52.52Zm43-13a1,1,0,0,0-1.78,0l-8,15.71a1,1,0,0,0-.11.45c0,3,4,5.29,9,5.29s9-2.32,9-5.29a1,1,0,0,0-.11-.45ZM-371.95,59c-3.94,0-6.74-1.58-7-3.08l7-13.72,7,13.72C-365.21,57.42-368,59-371.95,59Zm19.83-11.47a1,1,0,0,0-1.77,0l-5,9.43a1,1,0,0,0-.12.47c0,2,2.58,3.57,6,3.57s6-1.54,6-3.57a1,1,0,0,0-.12-.47ZM-353,59c-2.19,0-3.71-.78-4-1.39l4-7.47,4,7.47C-349.29,58.22-350.81,59-353,59Zm110.6,19-1.05-2-8.67-16.47a1,1,0,0,0-1.77,0L-262.55,76l-1.05,2-.28.53A1,1,0,0,0-264,79c0,3.36,4.83,6,11,6s11-2.64,11-6a1,1,0,0,0-.12-.47ZM-253,83c-5.1,0-8.72-2-9-3.78l.64-1.22,1.05-2L-253,62.15-245.71,76l1.05,2,.64,1.22C-244.28,81-247.9,83-253,83ZM-107-83c5,0,9-2.32,9-5.29a1,1,0,0,0-.11-.45l-8-15.71a1,1,0,0,0-1.78,0l-8,15.71a1,1,0,0,0-.11.45C-116-85.32-112-83-107-83Zm0-18.8,7,13.72c-.24,1.5-3,3.08-7,3.08s-6.74-1.58-7-3.08ZM-509,189.53a1,1,0,0,0-.12-.48l-13-23.57a1,1,0,0,0-1.75,0l-13,23.57a1,1,0,0,0-.12.48c0,4.17,6.15,7.43,14,7.43S-509,193.7-509,189.53ZM-523,195c-6.86,0-11.7-2.69-12-5.2L-523,168l12,21.73C-511.3,192.27-516.14,195-523,195Zm-24.12-12.48a1,1,0,0,0-1.75,0l-13,23.57a1,1,0,0,0-.12.48c0,4.17,6.15,7.43,14,7.43s14-3.26,14-7.43a1,1,0,0,0-.12-.48ZM-548,212c-6.86,0-11.7-2.69-12-5.2L-548,185l12,21.73C-536.3,209.27-541.14,212-548,212Zm43.88-17.48a1,1,0,0,0-1.75,0l-13,23.57a1,1,0,0,0-.12.48c0,4.17,6.15,7.43,14,7.43s14-3.26,14-7.43a1,1,0,0,0-.12-.48ZM-505,224c-6.86,0-11.7-2.69-12-5.2L-505,197l12,21.73C-493.3,221.27-498.14,224-505,224Zm-24.14-39c0,3.28,4.65,7,6.14,7s6.14-3.72,6.14-7a3.83,3.83,0,0,0-3.83-4h-.06a4.65,4.65,0,0,0-2.25.75,4.73,4.73,0,0,0-2.32-.75A3.83,3.83,0,0,0-529.14,185Zm6.84-1.26a2.62,2.62,0,0,1,1.64-.74,1.86,1.86,0,0,1,1.8,2c0,2-3.19,4.61-4.14,5-1-.37-4.14-2.94-4.14-5a1.85,1.85,0,0,1,1.77-2,2.6,2.6,0,0,1,1.67.74A1,1,0,0,0-522.3,183.7Zm570.55.3a11,11,0,0,0,0,22h0a11,11,0,0,0,0-22Zm0,20a9,9,0,1,1,9-9A9,9,0,0,1,48.25,204Zm0-15a4,4,0,0,0-4,4h2a2,2,0,0,1,4,0c0,.67-.5,1.05-1.3,1.62a3,3,0,0,0-1.7,2.38h2a2.75,2.75,0,0,1,.85-.74A3.82,3.82,0,0,0,48.25,189Zm0,9a1.5,1.5,0,1,0,1.5,1.5A1.5,1.5,0,0,0,48.25,198ZM53.41,53.71c-.64.23-1.29.43-1.95.6L61,72.09C60.72,75.86,54,79,46,79s-14.72-3.14-15-6.91l9.53-17.78c-.66-.17-1.31-.37-1.95-.6L29.12,71.38a1,1,0,0,0-.12.47C29,77,36.47,81,46,81s17-4,17-9.14a1,1,0,0,0-.12-.47ZM-357.12-85.49l-24-44a1,1,0,0,0-1.76,0l-24,44A1,1,0,0,0-407-85c0,7.3,11,13,25,13s25-5.71,25-13A1,1,0,0,0-357.12-85.49ZM-382-74c-12.3,0-22.71-4.9-23-10.76l23-42.19,11.14,20.44a1,1,0,0,0-.12.29l-1.82,9.1-7.08-.89a1,1,0,0,0-1.06.64l-3,8a1,1,0,0,0,.58,1.29A1,1,0,0,0-383-88a1,1,0,0,0,.94-.65l2.72-7.27,7.22.9a1,1,0,0,0,1.1-.8l1.61-8L-359-84.76C-359.29-78.91-369.7-74-382-74ZM46.2,24h0a1,1,0,0,0-.87.5L34.23,43.8a16.11,16.11,0,0,0,1.48,1.44L46.18,27,56.32,45.21a16.09,16.09,0,0,0,1.48-1.44L47.07,24.51A1,1,0,0,0,46.2,24ZM-508,210v8a1,1,0,0,0,1,1h4a1,1,0,0,0,1-1,1,1,0,0,0-1-1h-3v-2h2a1,1,0,0,0,1-1,1,1,0,0,0-1-1h-2v-2h3a1,1,0,0,0,1-1,1,1,0,0,0-1-1h-4A1,1,0,0,0-508,210Zm-43-12a1,1,0,0,0,1,1h1v6h-1a1,1,0,0,0-1,1,1,1,0,0,0,1,1h4a1,1,0,0,0,1-1,1,1,0,0,0-1-1h-1v-6h1a1,1,0,0,0,1-1,1,1,0,0,0-1-1h-4A1,1,0,0,0-551,198ZM-98.73,36l4.27-7.9,4.27,7.9h2.27l-5.67-10.48a1,1,0,0,0-1.76,0L-101,36ZM48-92c10.65,0,19-4.39,19-10a1,1,0,0,0-.12-.48l-18-33a1,1,0,0,0-1.76,0l-18,33A1,1,0,0,0,29-102C29-96.39,37.35-92,48-92Zm0-40.91,17,31.15C64.71-97.53,57-94,48-94s-16.71-3.53-17-7.76ZM-505.85,46.86l-7.27-13.34a1,1,0,0,0-1.76,0l-7.27,13.34-.62,1.14-4.1,7.52A1,1,0,0,0-527,56c0,3.92,5.71,7,13,7s13-3.08,13-7a1,1,0,0,0-.12-.48l-4.1-7.52ZM-514,61c-6.27,0-10.71-2.47-11-4.77l11-20.14,11,20.14C-503.29,58.53-507.73,61-514,61Z"/><circle class="cls-1" cx="44" cy="45" r="1"/><circle class="cls-1" cx="48" cy="45" r="1"/><circle class="cls-1" cx="52" cy="45" r="1"/><circle class="cls-1" cx="40" cy="45" r="1"/><circle class="cls-1" cx="42" cy="41" r="1"/><rect class="cls-1" y="60" width="2" height="8"/><rect class="cls-1" x="28" y="94" width="8" height="2"/><rect class="cls-1" y="76" width="2" height="8"/><rect class="cls-1" x="12" y="94" width="8" height="2"/><rect class="cls-1" x="44" y="94" width="8" height="2"/><polygon class="cls-1" points="0 4 2 4 2 2 4 2 4 0 0 0 0 4"/><rect class="cls-1" x="12" width="8" height="2"/><rect class="cls-1" x="44" width="8" height="2"/><rect class="cls-1" x="94" y="76" width="2" height="8"/><rect class="cls-1" x="94" y="60" width="2" height="8"/><polygon class="cls-1" points="94 94 92 94 92 96 96 96 96 92 94 92 94 94"/><rect class="cls-1" x="94" y="44" width="2" height="8"/><polygon class="cls-1" points="92 2 94 2 94 4 96 4 96 0 92 0 92 2"/><rect class="cls-1" x="94" y="28" width="2" height="8"/><rect class="cls-1" x="60" width="8" height="2"/><rect class="cls-1" x="94" y="12" width="2" height="8"/><rect class="cls-1" y="12" width="2" height="8"/><polygon class="cls-1" points="2 92 0 92 0 96 4 96 4 94 2 94 2 92"/><rect class="cls-1" x="76" width="8" height="2"/><rect class="cls-1" x="28" width="8" height="2"/><rect class="cls-1" x="76" y="94" width="8" height="2"/><rect class="cls-1" y="44" width="2" height="8"/><rect class="cls-1" x="60" y="94" width="8" height="2"/><rect class="cls-1" y="28" width="2" height="8"/><circle class="cls-1" cx="46" cy="41" r="1"/><circle class="cls-1" cx="50" cy="41" r="1"/><circle class="cls-1" cx="44" cy="37" r="1"/><circle class="cls-1" cx="46" cy="33" r="1"/><circle class="cls-1" cx="48" cy="37" r="1"/></svg>