<svg id="Illustrations" xmlns="http://www.w3.org/2000/svg" viewBox="0 0 96 96"><defs><style>.cls-1{fill:#ddd;}.cls-2{fill:#aaa;}</style></defs><title>2147_LISTING-QUALITY_r2v4c_MECH_OL.png</title><path class="cls-1" d="M-532.08,201.61a1,1,0,0,0-1.31-.53l-8.94,3.83-2.36-1a3,3,0,0,0,.7-1.9,3,3,0,0,0-3-3,3,3,0,0,0-3,3,3,3,0,0,0,2.73,3l2.4,1-2.4,1a3,3,0,0,0-2.73,3,3,3,0,0,0,3,3,3,3,0,0,0,3-3,3,3,0,0,0-.7-1.9l2.36-1,8.94,3.83a1,1,0,0,0,.39.08,1,1,0,0,0,.92-.61,1,1,0,0,0-.53-1.31L-539.8,206l7.19-3.08A1,1,0,0,0-532.08,201.61ZM-547,203a1,1,0,0,1-1-1,1,1,0,0,1,1-1,1,1,0,0,1,1,1A1,1,0,0,1-547,203Zm0,8a1,1,0,0,1-1-1,1,1,0,0,1,1-1,1,1,0,0,1,1,1A1,1,0,0,1-547,211Zm476-26H-83v-8.49A11.52,11.52,0,0,0-94.5,165,11.52,11.52,0,0,0-106,176.51V185h-12a1,1,0,0,0-1,1v42a1,1,0,0,0,1,1h47a1,1,0,0,0,1-1V186A1,1,0,0,0-71,185Zm-33-8.49A9.51,9.51,0,0,1-94.5,167a9.51,9.51,0,0,1,9.5,9.51V185h-19ZM-72,227h-45V187h45Zm-36.58-19.08,3.59,2.55-1.42,4.32a1,1,0,0,0,.15.91,1,1,0,0,0,.83.4l4.28-.15,1.26,4.33a1,1,0,0,0,.66.68,1,1,0,0,0,.3,0,1,1,0,0,0,.63-.23l3.37-2.75,3.41,2.7a1,1,0,0,0,.93.17,1,1,0,0,0,.65-.68l1.2-4.35,4.28.08a1,1,0,0,0,.83-.41,1,1,0,0,0,.14-.91L-85,210.31l3.55-2.61a1,1,0,0,0,.41-.81,1,1,0,0,0-.42-.81L-85,203.53l1.42-4.32a1,1,0,0,0-.15-.91,1,1,0,0,0-.83-.4l-4.28.15-1.26-4.33a1,1,0,0,0-.66-.68,1,1,0,0,0-.93.18L-95.08,196l-3.41-2.7a1,1,0,0,0-.93-.17,1,1,0,0,0-.65.68l-1.2,4.35-4.28-.08a.92.92,0,0,0-.83.41,1,1,0,0,0-.14.91l1.48,4.29-3.55,2.61a1,1,0,0,0-.41.81A1,1,0,0,0-108.58,207.92Zm5.32-3.05a1,1,0,0,0,.35-1.13l-1.26-3.64,3.63.07a1,1,0,0,0,1-.73l1-3.64,2.86,2.26a1,1,0,0,0,1.25,0l2.82-2.3,1.06,3.63a1,1,0,0,0,1,.72l3.63-.13-1.2,3.66a1,1,0,0,0,.37,1.13l3.06,2.17-3,2.22a1,1,0,0,0-.35,1.13l1.26,3.64-3.63-.07a1.06,1.06,0,0,0-1,.73l-1,3.64L-94.31,216a1,1,0,0,0-1.25,0l-2.82,2.3-1.06-3.63a1,1,0,0,0-1-.72h0l-3.62.13,1.2-3.66a1,1,0,0,0-.37-1.13l-3.06-2.17Zm8.43,7.13c2.85,0,5-1.35,5-3.14a1,1,0,0,0-.11-.45l-4-7.86a1,1,0,0,0-1.78,0l-4,7.86a1,1,0,0,0-.11.45C-99.83,210.65-97.68,212-94.83,212Zm0-8.8,3,5.8a3.71,3.71,0,0,1-3,1,3.71,3.71,0,0,1-3-1ZM-343,218h-78a1,1,0,0,0-1,1v15a1,1,0,0,0,1,1h78a1,1,0,0,0,1-1V219A1,1,0,0,0-343,218Zm-1,15h-76V220h4v6a1,1,0,0,0,1,1,1,1,0,0,0,1-1v-6h4v9a1,1,0,0,0,1,1,1,1,0,0,0,1-1v-9h4v6a1,1,0,0,0,1,1,1,1,0,0,0,1-1v-6h4v9a1,1,0,0,0,1,1,1,1,0,0,0,1-1v-9h4v6a1,1,0,0,0,1,1,1,1,0,0,0,1-1v-6h4v9a1,1,0,0,0,1,1,1,1,0,0,0,1-1v-9h4v6a1,1,0,0,0,1,1,1,1,0,0,0,1-1v-6h4v9a1,1,0,0,0,1,1,1,1,0,0,0,1-1v-9h4v6a1,1,0,0,0,1,1,1,1,0,0,0,1-1v-6h4v9a1,1,0,0,0,1,1,1,1,0,0,0,1-1v-9h4v6a1,1,0,0,0,1,1,1,1,0,0,0,1-1v-6h4v9a1,1,0,0,0,1,1,1,1,0,0,0,1-1v-9h4Zm137-7V164a1,1,0,0,0-1-1h-62a1,1,0,0,0-1,1v62a1,1,0,0,0,1,1h6.4l1.05-2H-269V197h29v28h-3.45l1.05,2h7.4v5a1,1,0,0,0,1,1h19a1,1,0,0,0,1-1v-5h6A1,1,0,0,0-207,226Zm-62-61h23.93A26.3,26.3,0,0,1-269,188.93Zm29,30h-29v-4.07A28.28,28.28,0,0,0-243.07,165H-240Zm24,36h-17V217h17Zm7-6h-5v-9a1,1,0,0,0-1-1h-8v-3.35l5.65-4.89a1,1,0,0,0,.1-1.41,1,1,0,0,0-1.41-.1L-223,209v-7a1,1,0,0,0-1-1,1,1,0,0,0-1,1v7l-4.35-3.73a1,1,0,0,0-1.41.11,1,1,0,0,0,.11,1.41l5.65,4.85V215h-9a1,1,0,0,0-1,1v9h-3V197h29Zm0-30h-29V165h3.07A28.28,28.28,0,0,0-209,190.93Zm0-6.07A26.3,26.3,0,0,1-232.93,165H-209ZM-94,56V71a1,1,0,0,0,1,1h15a1,1,0,0,0,1-1V56a1,1,0,0,0-1-1H-93A1,1,0,0,0-94,56Zm2,1h13V70H-92Zm0-5a9,9,0,0,0,9-9,9,9,0,0,0-9-9,9,9,0,0,0-9,9A9,9,0,0,0-92,52Zm0-16a7,7,0,0,1,7,7,7,7,0,0,1-7,7,7,7,0,0,1-7-7A7,7,0,0,1-92,36Zm-3,49A30,30,0,0,0-65,55,30.05,30.05,0,0,0-86,26.38V25.13a13,13,0,0,0,7.5,2.39,13,13,0,0,0,9.21-3.81,1,1,0,0,0,0-1.41,1,1,0,0,0-1.41,0,11,11,0,0,1-15.58,0,1,1,0,0,0-.33-.22A1,1,0,0,0-87,22h-.12l5.89-7.16a1,1,0,0,0,.22-.76,1,1,0,0,0-.4-.68l-3-2.2a1,1,0,0,0-1-.12L-90,12.92l-4.63-1.85a1,1,0,0,0-.74,0L-100,12.9l-3.6-1.8a1,1,0,0,0-.89,0l-4,2a1,1,0,0,0-.53.68,1,1,0,0,0,.2.84l6,7.37H-103a1,1,0,0,0-1,1v3.38A30.05,30.05,0,0,0-125,55,30,30,0,0,0-95,85Zm-11.44-70.66,2.44-1.22,3.55,1.78a1,1,0,0,0,.82,0L-95,13.08l4.63,1.85a1,1,0,0,0,.74,0l4.48-1.79,1.7,1.25L-89.71,22h-10.5ZM-88,24v2h-14V24Zm-14.4,4h14.8A28,28,0,0,1-67,55,28,28,0,0,1-95,83a28,28,0,0,1-28-28A28,28,0,0,1-102.4,28ZM13,319v51a1,1,0,0,0,1,1H82a1,1,0,0,0,1-1V319a1,1,0,0,0-1-1H14A1,1,0,0,0,13,319Zm2,1H81v49H15ZM86.69,215.27l-18-17a1,1,0,0,0-1.39,0l-1.79,1.79-4.69-4.69a20.08,20.08,0,1,0-1.41,1.41l4.69,4.69-1.79,1.79a1,1,0,0,0,0,1.43l18,17a1,1,0,0,0,1.39,0l5-5a1,1,0,0,0,0-1.43ZM46,200a18,18,0,1,1,18-18A18,18,0,0,1,46,200Zm35,19.61L64.43,204,68,200.39,84.57,216ZM40.59,71.06a4.42,4.42,0,0,0,3.1-1.34,1,1,0,0,0-1.38-1.45,2.53,2.53,0,0,1-3.63,0,1,1,0,0,0-1.37,1.45A5,5,0,0,0,40.59,71.06Zm11.69,4.25a6.25,6.25,0,0,1-8.55,0,1,1,0,0,0-1.45,1.38A8.12,8.12,0,0,0,48,79a8.22,8.22,0,0,0,5.72-2.31,1,1,0,1,0-1.45-1.38Zm3.31-4.25a4.42,4.42,0,0,0,3.1-1.34,1,1,0,0,0-1.38-1.45,2.53,2.53,0,0,1-3.63,0,1,1,0,0,0-1.37,1.45A5,5,0,0,0,55.59,71.06ZM36.92,86.4a24.22,24.22,0,0,0-9.74,8,1,1,0,0,0,.24,1.39A1,1,0,0,0,28,96v0h8V94H30.06a22.65,22.65,0,0,1,9.43-6.5,25,25,0,0,0,17,0A22.65,22.65,0,0,1,65.94,94H60v2h8a1,1,0,0,0,.82-1.58,24.22,24.22,0,0,0-9.74-8,25,25,0,0,0,7.86-38.7,6.07,6.07,0,0,1-.75,2.24,23,23,0,1,1-36.38,0,6.07,6.07,0,0,1-.75-2.24,25,25,0,0,0,7.86,38.7Zm-522,132.23,0-.07a1,1,0,0,0-.07-.13l-16-23A1,1,0,0,0-502,195h-4.32l1.09,2h2.7l14.61,21h-76.24l13.7-21h27.68l1.09-2H-551a1,1,0,0,0-.84.45l-15,23a1,1,0,0,0-.05.11l0,.08a1,1,0,0,0-.07.34v25h2V220h6v22h-3v2h8v-2h-3V228h62v14h-3v2h8v-2h-3V220h6v24h2V219A1,1,0,0,0-485.07,218.64ZM-495,226h-62v-6h62ZM94,381h2v-8H94ZM2,373H0v8H2Zm0-48H0v8H2Zm0,16H0v8H2Zm0,16H0v8H2Zm92,8h2v-8H94ZM44,393h8v-2H44Zm50-60h2v-8H94ZM12,393h8v-2H12Zm16,0h8v-2H28ZM2,309H0v8H2Zm-2-8H2v-2H4v-2H0Zm94,16h2v-8H94Zm-2-18h2v2h2v-4H92ZM2,389H0v4H4v-2H2Zm92-40h2v-8H94ZM20,297H12v2h8Zm8,2h8v-2H28Zm24,0v-2H44v2Zm42,92H92v2h4v-4H94ZM60,299h8v-2H60Zm16,94h8v-2H76Zm-16,0h8v-2H60Zm16-94h8v-2H76ZM-572,44h-2v8h2Zm0,16h-2v8h2Zm50-60h-8V2h8Zm-50,28h-2v8h2Zm92,66h-2v2h4V92h-2Zm-92-2h-2v4h4V94h-2Zm34-92h-8V2h8Zm16,94h-8v2h8ZM-574,4h2V2h2V0h-4Zm36,90h-8v2h8Zm-34-18h-2v8h2Zm92-56h2V12h-2Zm0,64h2V76h-2Zm-10,10h-8v2h8Zm0-94h-8V2h8Zm-64,0h-8V2h8Zm0,94h-8v2h8Zm74-58h2V28h-2Zm-92-24h-2v8h2Zm92,56h2V60h-2Zm-2-66h2V4h2V0h-4Zm2,50h2V44h-2Zm-26,42h-8v2h8Zm0-94h-8V2h8Zm221,12h-2v8h2Zm18,82h-8v2h8Zm48,0h-8v2h8ZM-287,4h2V2h2V0h-4Zm20-4h-8V2h8Zm-18,92h-2v4h4V94h-2Zm34-92h-8V2h8Zm0,94h-8v2h8Zm-34-66h-2v8h2Zm66-28h-8V2h8Zm-16,94h-8v2h8Zm24,2h8V94h-8Zm18-60h2V28h-2Zm0,16h2V44h-2Zm0,16h2V60h-2Zm0,16h2V76h-2Zm0-64h2V12h-2Zm-2-18h2V4h2V0h-4Zm-40-2h-8V2h8Zm42,94h-2v2h4V92h-2ZM-211,2h8V0h-8Zm-74,58h-2v8h2Zm0-16h-2v8h2Zm0,32h-2v8h2Zm144,0h-2v8h2Zm92-56h2V12h-2ZM-51,2h2V4h2V0h-4ZM-91,0h-8V2h8Zm16,94h-8v2h8Zm8,2h8V94h-8Zm18-60h2V28h-2ZM-143,4h2V2h2V0h-4Zm94,80h2V76h-2ZM-91,94h-8v2h8Zm42,0h-2v2h4V92h-2Zm-92-2h-2v4h4V94h-2Zm34-92h-8V2h8Zm58,68h2V60h-2Zm0-16h2V44h-2Zm-92,8h-2v8h2Zm0-16h-2v8h2ZM-75,0h-8V2h8Zm-66,28h-2v8h2Zm0-16h-2v8h2Zm18-12h-8V2h8Zm16,94h-8v2h8Zm-24,2h8V94h-8ZM-67,2h8V0h-8ZM20,0H12V2h8ZM44,94v2h8V94ZM94,36h2V28H94Zm0-16h2V12H94ZM4,94H2V92H0v4H4ZM2,12H0v8H2ZM2,2H4V0H0V4H2ZM2,28H0v8H2ZM20,94H12v2h8ZM2,76H0v8H2ZM2,44H0v8H2ZM36,0H28V2h8ZM2,60H0v8H2Zm92-8h2V44H94Zm0,16h2V60H94Zm0,16h2V76H94ZM84,94H76v2h8Zm10,0H92v2h4V92H94ZM84,0H76V2h8ZM52,0H44V2h8ZM92,0V2h2V4h2V0ZM68,0H60V2h8ZM-574,152h2v-2h2v-2h-4Zm2,24h-2v8h2Zm0,64h-2v4h4v-2h-2Zm92-40h2v-8h-2Zm-92-40h-2v8h2Zm0,64h-2v8h2Zm0-16h-2v8h2Zm0-16h-2v8h2Zm92-8h2v-8h-2Zm-34,60h8v-2h-8Zm-8-96h-8v2h8Zm-16,0h-8v2h8Zm32,0h-8v2h8Zm26,94h-2v2h4v-4h-2Zm0-26h2v-8h-2Zm0,16h2v-8h-2Zm-50,12h8v-2h-8Zm-24-96h-8v2h8Zm8,96h8v-2h-8Zm66-76h2v-8h-2Zm-10-20h-8v2h8Zm8,2h2v2h2v-4h-4Zm128,95h8v-2h-8Zm8-96h-8v2h8Zm-16,94h-8v2h8Zm0-94h-8v2h8Zm-16,0h-8v2h8Zm42,94h-2v2h4v-4h-2Zm0-74h2v-8h-2Zm0,16h2v-8h-2Zm-2-34h2v2h2v-4h-4Zm2,50h2v-8h-2Zm0,16h2v-8h-2Zm0,16h2v-8h-2Zm-74-84h-8v2h8Zm-18,60h-2v8h2Zm0-32h-2v8h2Zm34-28h-8v2h8Zm-34,44h-2v8h2Zm0,48h-2v4h4v-2h-2Zm0-16h-2v8h2Zm-2-72h2v-2h2v-2h-4Zm12,92h8v-2h-8Zm24-2h-8v2h8Zm-34-82h-2v8h2Zm50,82h-8v2h8Zm143-94h-8v2h8Zm-16,0h-8v2h8Zm-16,0h-8v2h8Zm-18,28h-2v8h2Zm66-28h-8v2h8Zm-66,12h-2v8h2Zm0,32h-2v8h2Zm0,16h-2v8h2Zm0,16h-2v8h2Zm74,20h8v-2h-8Zm-40-2h-8v2h8Zm58-26h2v-8h-2Zm-26,26h-8v2h8Zm26-10h2v-8h-2Zm-42,10h-8v2h8Zm-40,2h8v-2h-8Zm-12-92h2v-2h2v-2h-4Zm2,88h-2v4h4v-2h-2Zm92,2h-2v2h4v-4h-2Zm-2-92h2v2h2v-4h-4Zm2,18h2v-8h-2Zm-18-18h8v-2h-8Zm18,34h2v-8h-2Zm0,16h2v-8h-2Zm52,8h-2v8h2Zm34,34h-8v2h8Zm-34-18h-2v8h2Zm10,20h8v-2h-8Zm40-2h-8v2h8Zm-52-90h2v-2h2v-2h-4Zm12-2h8v-2h-8Zm32,0h8v-2h-8Zm50,82h2v-8h-2Zm0-16h2v-8h-2Zm0,26h-2v2h4v-4h-2Zm0-42h2v-8h-2Zm-2-50h2v2h2v-4h-4Zm2,34h2v-8h-2Zm-34-34h8v-2h-8Zm34,18h2v-8h-2Zm-92-8h-2v8h2Zm0,80h-2v4h4v-2h-2Zm74-90h8v-2h-8Zm-48,0h8v-2h-8Zm48,94h8v-2h-8Zm-74-52h-2v8h2Zm66,50h-8v2h8Zm-66-66h-2v8h2ZM-354,299h8v-2h-8Zm0,94h8v-2h-8Zm18-76h2v-8h-2Zm0,16h2v-8h-2Zm0,16h2v-8h-2Zm-2-50h2v2h2v-4h-4Zm2,82h2v-8h-2Zm0-16h2v-8h-2Zm0,26h-2v2h4v-4h-2Zm-94-90h2v-2h2v-2h-4Zm28,92h8v-2h-8Zm-26-84h-2v8h2Zm0,16h-2v8h2Zm42,68h8v-2h-8Zm-42-36h-2v8h2Zm0,16h-2v8h2Zm0-32h-2v8h2Zm10,52h8v-2h-8Zm48,0h8v-2h-8Zm-48-94h8v-2h-8Zm-10,90h-2v4h4v-2h-2Zm42-90h8v-2h-8Zm16,0h8v-2h-8Zm-32,0h8v-2h-8Zm115,2h2v-2h2v-2h-4Zm60,92h8v-2h-8Zm-32,0h8v-2h-8Zm16,0h8v-2h-8Zm50-28h2v-8h-2Zm-92,24h-2v4h4v-2h-2Zm92-40h2v-8h-2Zm-34-50h8v-2h-8Zm-48,0h8v-2h-8Zm0,94h8v-2h-8Zm82-12h2v-8h-2Zm-50-82h8v-2h-8Zm-16,0h8v-2h-8Zm-26,58h-2v8h2Zm92-24h2v-8h-2Zm-92-8h-2v8h2Zm0,16h-2v8h2Zm74,52h8v-2h-8Zm0-94h8v-2h-8Zm18,92h-2v2h4v-4h-2Zm-92-18h-2v8h2Zm0-64h-2v8h2Zm92,8h2v-8h-2Zm-2-18h2v2h2v-4h-4Zm146,35h2v-8h-2Zm-18,60h8v-2h-8Zm18-28h2v-8h-2Zm-18-66h8v-2h-8Zm18,18h2v-8h-2Zm0,64h2v-8h-2Zm0,10h-2v2h4v-4h-2Zm0-42h2v-8h-2Zm-2-50h2v2h2v-4h-4Zm-64,94h8v-2h-8Zm32,0h8v-2h-8Zm-16,0h8v-2h-8Zm-32-94h8v-2h-8Zm-10,90h-2v4h4v-2h-2Zm58-90h8v-2h-8Zm-48,94h8v-2h-8Zm-12-92h2v-2h2v-2h-4Zm2,8h-2v8h2Zm0,16h-2v8h2Zm42-26h8v-2h-8Zm-42,42h-2v8h2Zm0,32h-2v8h2Zm26-74h8v-2h-8Zm-26,58h-2v8h2ZM-394,94h-8v2h8Zm-34-66h-2v8h2Zm0-16h-2v8h2Zm50,82h-8v2h8Zm-50-50h-2v8h2Zm18,50h-8v2h8Zm0-94h-8V2h8Zm-18,92h-2v4h4V94h-2Zm90-90h2V4h2V0h-4Zm-90,74h-2v8h2Zm0-16h-2v8h2Zm-2-56h2V2h2V0h-4Zm36-4h-8V2h8Zm58,84h2V76h-2Zm0,10h-2v2h4V92h-2ZM-346,0h-8V2h8Zm10,68h2V60h-2Zm0-16h2V44h-2Zm0-16h2V28h-2ZM-362,0h-8V2h8Zm26,20h2V12h-2Zm-10,74h-8v2h8Zm-16,0h-8v2h8ZM-378,0h-8V2h8ZM-562,299h8v-2h-8Zm0,94h8v-2h-8Zm16,0h8v-2h-8Zm16,0h8v-2h-8Zm-16-94h8v-2h-8Zm-28,2h2v-2h2v-2h-4Zm2,40h-2v8h2Zm0,48h-2v4h4v-2h-2Zm0-64h-2v8h2Zm42-26h8v-2h-8Zm-42,10h-2v8h2Zm0,64h-2v8h2Zm58-74h8v-2h-8Zm0,94h8v-2h-8Zm34-76h2v-8h-2Zm0,32h2v-8h-2Zm-92,8h-2v8h2Zm90-58h2v2h2v-4h-4Zm2,34h2v-8h-2Zm-18-34h8v-2h-8Zm18,66h2v-8h-2Zm-18,28h8v-2h-8Zm18-12h2v-8h-2Zm0,10h-2v2h4v-4h-2Z"/><path class="cls-2" d="M-526,77c14,0,25-5.71,25-13a1,1,0,0,0-.12-.48l-24-44a1,1,0,0,0-1.76,0l-24,44A1,1,0,0,0-551,64C-551,71.29-540,77-526,77Zm0-54.95,23,42.19C-503.29,70.09-513.7,75-526,75s-22.71-4.9-23-10.76Zm142,179.24a1,1,0,0,0-.12-.47l-15-28.29a1,1,0,0,0-1.77,0l-15,28.29a1,1,0,0,0-.12.47c0,4.89,7,8.71,16,8.71S-384,206.17-384,201.29Zm-30,.23,14-26.38,14,26.38c-.27,3.54-6.56,6.48-14,6.48S-413.75,205.06-414,201.52Zm43-13a1,1,0,0,0-1.78,0l-8,15.71a1,1,0,0,0-.11.45c0,3,4,5.29,9,5.29s9-2.32,9-5.29a1,1,0,0,0-.11-.45Zm-.89,19.45c-3.94,0-6.74-1.58-7-3.08l7-13.72,7,13.72C-365.21,206.42-368,208-371.95,208Zm19.83-11.47a1,1,0,0,0-1.77,0l-5,9.43a1,1,0,0,0-.12.47c0,2,2.58,3.57,6,3.57s6-1.54,6-3.57a1,1,0,0,0-.12-.47ZM-353,208c-2.19,0-3.71-.78-4-1.39l4-7.47,4,7.47C-349.29,207.22-350.81,208-353,208Zm110.6,19-1.05-2-8.67-16.47a1,1,0,0,0-1.77,0L-262.55,225l-1.05,2-.28.53a1,1,0,0,0-.12.47c0,3.36,4.83,6,11,6s11-2.64,11-6a1,1,0,0,0-.12-.47Zm-10.6,5c-5.1,0-8.72-2-9-3.78l.64-1.22,1.05-2,7.29-13.85,7.29,13.85,1.05,2,.64,1.22C-244.28,230-247.9,232-253,232ZM-107,66c5,0,9-2.32,9-5.29a1,1,0,0,0-.11-.45l-8-15.71a1,1,0,0,0-1.78,0l-8,15.71a1,1,0,0,0-.11.45C-116,63.68-112,66-107,66Zm0-18.8,7,13.72c-.24,1.5-3,3.08-7,3.08s-6.74-1.58-7-3.08ZM-509,338.53a1,1,0,0,0-.12-.48l-13-23.57a1,1,0,0,0-1.75,0l-13,23.57a1,1,0,0,0-.12.48c0,4.17,6.15,7.43,14,7.43S-509,342.7-509,338.53ZM-523,344c-6.86,0-11.7-2.69-12-5.2L-523,317l12,21.73C-511.3,341.27-516.14,344-523,344Zm-24.12-12.48a1,1,0,0,0-1.75,0l-13,23.57a1,1,0,0,0-.12.48c0,4.17,6.15,7.43,14,7.43s14-3.26,14-7.43a1,1,0,0,0-.12-.48ZM-548,361c-6.86,0-11.7-2.69-12-5.2L-548,334l12,21.73C-536.3,358.27-541.14,361-548,361Zm43.88-17.48a1,1,0,0,0-1.75,0l-13,23.57a1,1,0,0,0-.12.48c0,4.17,6.15,7.43,14,7.43s14-3.26,14-7.43a1,1,0,0,0-.12-.48ZM-505,373c-6.86,0-11.7-2.69-12-5.2L-505,346l12,21.73C-493.3,370.27-498.14,373-505,373Zm-24.14-39c0,3.28,4.65,7,6.14,7s6.14-3.72,6.14-7a3.83,3.83,0,0,0-3.83-4h-.06a4.65,4.65,0,0,0-2.25.75,4.73,4.73,0,0,0-2.32-.75A3.83,3.83,0,0,0-529.14,334Zm6.84-1.26a2.62,2.62,0,0,1,1.64-.74,1.86,1.86,0,0,1,1.8,2c0,2-3.19,4.61-4.14,5-1-.37-4.14-2.94-4.14-5a1.85,1.85,0,0,1,1.77-2,2.6,2.6,0,0,1,1.67.74A1,1,0,0,0-522.3,332.7Zm570.55.3a11,11,0,0,0,0,22h0a11,11,0,0,0,0-22Zm0,20a9,9,0,1,1,9-9A9,9,0,0,1,48.25,353Zm0-15a4,4,0,0,0-4,4h2a2,2,0,0,1,4,0c0,.67-.5,1.05-1.3,1.62a3,3,0,0,0-1.7,2.38h2a2.75,2.75,0,0,1,.85-.74A3.82,3.82,0,0,0,48.25,338Zm0,9a1.5,1.5,0,1,0,1.5,1.5A1.5,1.5,0,0,0,48.25,347Zm5.16-144.29c-.64.23-1.29.43-1.95.6L61,221.09c-.27,3.77-7,6.91-15,6.91s-14.72-3.14-15-6.91l9.53-17.78c-.66-.17-1.31-.37-1.95-.6l-9.47,17.67a1,1,0,0,0-.12.47C29,226,36.47,230,46,230s17-4,17-9.14a1,1,0,0,0-.12-.47ZM-357.12,63.51l-24-44a1,1,0,0,0-1.76,0l-24,44A1,1,0,0,0-407,64c0,7.3,11,13,25,13s25-5.71,25-13A1,1,0,0,0-357.12,63.51ZM-382,75c-12.3,0-22.71-4.9-23-10.76l23-42.19,11.14,20.44a1,1,0,0,0-.12.29l-1.82,9.1-7.08-.89a1,1,0,0,0-1.06.64l-3,8a1,1,0,0,0,.58,1.29A1,1,0,0,0-383,61a1,1,0,0,0,.94-.65l2.72-7.27,7.22.9a1,1,0,0,0,1.1-.8l1.61-8L-359,64.24C-359.29,70.09-369.7,75-382,75ZM46.2,173h0a1,1,0,0,0-.87.5L34.23,192.8a16.11,16.11,0,0,0,1.48,1.44L46.18,176l10.14,18.18a16.09,16.09,0,0,0,1.48-1.44L47.07,173.51A1,1,0,0,0,46.2,173ZM-508,359v8a1,1,0,0,0,1,1h4a1,1,0,0,0,1-1,1,1,0,0,0-1-1h-3v-2h2a1,1,0,0,0,1-1,1,1,0,0,0-1-1h-2v-2h3a1,1,0,0,0,1-1,1,1,0,0,0-1-1h-4A1,1,0,0,0-508,359Zm-43-12a1,1,0,0,0,1,1h1v6h-1a1,1,0,0,0-1,1,1,1,0,0,0,1,1h4a1,1,0,0,0,1-1,1,1,0,0,0-1-1h-1v-6h1a1,1,0,0,0,1-1,1,1,0,0,0-1-1h-4A1,1,0,0,0-551,347ZM-98.73,185l4.27-7.9,4.27,7.9h2.27l-5.67-10.48a1,1,0,0,0-1.76,0L-101,185ZM48,57c10.65,0,19-4.39,19-10a1,1,0,0,0-.12-.48l-18-33a1,1,0,0,0-1.76,0l-18,33A1,1,0,0,0,29,47C29,52.61,37.35,57,48,57Zm0-40.91L65,47.24C64.71,51.47,57,55,48,55s-16.71-3.53-17-7.76ZM-505.85,195.86l-7.27-13.34a1,1,0,0,0-1.76,0l-7.27,13.34-.62,1.14-4.1,7.52a1,1,0,0,0-.12.48c0,3.92,5.71,7,13,7s13-3.08,13-7a1,1,0,0,0-.12-.48l-4.1-7.52ZM-514,210c-6.27,0-10.71-2.47-11-4.77l11-20.14,11,20.14C-503.29,207.53-507.73,210-514,210Z"/></svg>